<?xml version="1.0" encoding="utf-8"?>
<!-- Generator: Adobe Illustrator 25.3.0, SVG Export Plug-In . SVG Version: 6.00 Build 0)  -->
<svg version="1.1" id="Capa_1" xmlns="http://www.w3.org/2000/svg" xmlns:xlink="http://www.w3.org/1999/xlink" x="0px" y="0px"
	 viewBox="0 0 1000 1000" style="enable-background:new 0 0 1000 1000;" xml:space="preserve">
<style type="text/css">
	.st0{fill:#FFFFFF;}
	.st1{fill:url(#SVGID_1_);}
	.st2{fill:url(#SVGID_2_);}
	.st3{fill:url(#SVGID_3_);}
	.st4{fill:url(#SVGID_4_);}
	.st5{enable-background:new    ;}
</style>
<g>
	<g>
		<path class="st0" d="M515.5,497.8c1.5-0.9,3-1.8,4.9-1.8c1.5-0.3,4.9-0.6,8.2-0.6c-3.3,0.3-6.7,0.6-8.2,0.6
			C518.5,496,517,496.9,515.5,497.8z"/>
		
			<linearGradient id="SVGID_1_" gradientUnits="userSpaceOnUse" x1="500.9573" y1="519.4306" x2="505.9241" y2="519.4306" gradientTransform="matrix(1 0 0 -1 0 1002)">
			<stop  offset="5.193929e-02" style="stop-color:#00E4E3"/>
			<stop  offset="0.2033" style="stop-color:#6A4FEB"/>
			<stop  offset="0.2198" style="stop-color:#5943C6"/>
			<stop  offset="0.2413" style="stop-color:#47359D"/>
			<stop  offset="0.2654" style="stop-color:#362877"/>
			<stop  offset="0.2917" style="stop-color:#271D57"/>
			<stop  offset="0.3208" style="stop-color:#1B143B"/>
			<stop  offset="0.3536" style="stop-color:#110D25"/>
			<stop  offset="0.3919" style="stop-color:#090714"/>
			<stop  offset="0.4393" style="stop-color:#040309"/>
			<stop  offset="0.5057" style="stop-color:#010102"/>
			<stop  offset="0.6901" style="stop-color:#000000"/>
		</linearGradient>
		<path class="st1" d="M506.1,477.4L506.1,477.4c-0.6,4-2.4,7-4.9,10.3l0,0C503.6,484.4,505.4,481.4,506.1,477.4z"/>
		<path class="st0" d="M532.2,495c-0.6,0-0.9,0-1.5,0C531,495,531.6,495,532.2,495z"/>
		<path class="st0" d="M510.3,502.3c0.3-0.6,0.6-0.9,0.9-1.5c3.7,2.7,6.7,5.5,10.3,7.9l0,0c-3.3-2.4-6.7-5.2-10.3-7.9
			C510.9,501.4,510.6,501.7,510.3,502.3z"/>
		<path class="st0" d="M538.3,494.7c-1.2,0-2.7,0.3-4.3,0.3C535.9,494.7,537.1,494.7,538.3,494.7z"/>
		<path class="st0" d="M504.5,507.2c-1.5-1.8-2.7-4-4-6.1c-1.5,1.2-3.3,2.7-4.9,3.7c-1.5,0.9-3,2.4-4.6,3.7c-0.3,0-0.3-0.3-0.6-0.6
			l0,0c0.3,0.3,0.3,0.6,0.6,0.6c1.5-1.2,3-2.4,4.6-3.7c1.5-1.2,3.3-2.4,4.9-3.7C501.8,503.3,503.3,505.4,504.5,507.2
			c0.6,0.9,0.9,1.8,1.2,2.7c0-0.3,0.3-0.3,0.3-0.6c0,0.3-0.3,0.3-0.3,0.6C505.4,509,505.1,508.1,504.5,507.2z"/>
		<path class="st0" d="M489,495.3c-3.3-0.3-13.7-1.2-16.7-1.5l0,0C475.3,494.4,485.7,495,489,495.3c3,0,6.4,0.6,9.1,3.3
			c-0.9,1.2-1.8,2.4-3,3.3c0.9-1.2,2.1-2.1,3-3.3C495.4,496,492.1,495.3,489,495.3z"/>
		<path class="st0" d="M474.7,493.8L474.7,493.8L474.7,493.8z"/>
		<path class="st0" d="M476.8,493.5c1.2,0,2.4,0,3.7-0.3C479.3,493.5,477.8,493.5,476.8,493.5z"/>
		<path class="st0" d="M544.1,494.1L544.1,494.1c-0.6,0-1.2,0-1.8,0.3C542.9,494.1,543.5,494.1,544.1,494.1z"/>
		
			<linearGradient id="SVGID_2_" gradientUnits="userSpaceOnUse" x1="520.1681" y1="521.8645" x2="521.8547" y2="521.8645" gradientTransform="matrix(1 0 0 -1 0 1002)">
			<stop  offset="5.193929e-02" style="stop-color:#00E4E3"/>
			<stop  offset="0.2033" style="stop-color:#6A4FEB"/>
			<stop  offset="0.2198" style="stop-color:#5943C6"/>
			<stop  offset="0.2413" style="stop-color:#47359D"/>
			<stop  offset="0.2654" style="stop-color:#362877"/>
			<stop  offset="0.2917" style="stop-color:#271D57"/>
			<stop  offset="0.3208" style="stop-color:#1B143B"/>
			<stop  offset="0.3536" style="stop-color:#110D25"/>
			<stop  offset="0.3919" style="stop-color:#090714"/>
			<stop  offset="0.4393" style="stop-color:#040309"/>
			<stop  offset="0.5057" style="stop-color:#010102"/>
			<stop  offset="0.6901" style="stop-color:#000000"/>
		</linearGradient>
		<path class="st2" d="M521.9,479.5c-0.6,0.3-1.2,0.9-1.8,1.2C520.7,480.4,521.3,480.1,521.9,479.5L521.9,479.5z"/>
		<path class="st0" d="M540.7,494.4c-0.3,0-0.9,0-1.2,0C539.8,494.4,540.1,494.4,540.7,494.4z"/>
		
			<linearGradient id="SVGID_3_" gradientUnits="userSpaceOnUse" x1="489.8995" y1="517.1485" x2="498.4188" y2="517.1485" gradientTransform="matrix(1 0 0 -1 0 1002)">
			<stop  offset="5.193929e-02" style="stop-color:#00E4E3"/>
			<stop  offset="0.2033" style="stop-color:#6A4FEB"/>
			<stop  offset="0.2198" style="stop-color:#5943C6"/>
			<stop  offset="0.2413" style="stop-color:#47359D"/>
			<stop  offset="0.2654" style="stop-color:#362877"/>
			<stop  offset="0.2917" style="stop-color:#271D57"/>
			<stop  offset="0.3208" style="stop-color:#1B143B"/>
			<stop  offset="0.3536" style="stop-color:#110D25"/>
			<stop  offset="0.3919" style="stop-color:#090714"/>
			<stop  offset="0.4393" style="stop-color:#040309"/>
			<stop  offset="0.5057" style="stop-color:#010102"/>
			<stop  offset="0.6901" style="stop-color:#000000"/>
		</linearGradient>
		<path class="st3" d="M489.9,479.8L489.9,479.8c3,3.3,5.8,6.7,8.5,10l0,0C495.7,486.5,492.7,483.2,489.9,479.8z"/>
		
			<linearGradient id="SVGID_4_" gradientUnits="userSpaceOnUse" x1="262.2658" y1="-571.2749" x2="436.2115" y2="-267.1643" gradientTransform="matrix(1 0 0 1 0 784)">
			<stop  offset="5.193929e-02" style="stop-color:#00E4E3"/>
			<stop  offset="0.2033" style="stop-color:#6A4FEB"/>
			<stop  offset="0.5057" style="stop-color:#FFFFFF"/>
		</linearGradient>
		<path class="st4" d="M203,638.4c0.3,0.3,0.3,0.3,0.6,0.3c0.6-0.6,1.5-1.2,2.1-1.8c12.2-12.2,24.6-24.6,37.1-36.8
			c22.2-22.2,44.4-44.4,66.6-66.3c30.1-29.8,59.9-59.6,90.1-89.8c21.3-21.3,42.6-42.3,63.6-63.3c7.9-7.9,16.1-15.8,24-23.7
			c21.9-21.6,43.5-43.2,65.1-64.8c1.2-1.2,1.5-2.4,0.9-4c-0.3-0.6-0.3-0.9-0.3-1.5l-41.1-151.5c-1.8-18-9.4-38-28.6-57.8
			c11.6,28,11.6,47.2,8.8,62.7C395.3,306.4,299.2,472.2,203,638.4z"/>
		<path class="st0" d="M391.4,570.2c2.1,1.5,185.3,50.5,188.3,50.5c-54.2-31.3-108-62.1-162.2-93.1c31.3-53.9,62.1-107.4,93.1-160.7
			c0,0,0-0.3-0.3-0.3l-0.3-0.3c-7.3,6.4-179.2,178-180.7,180.7c1.5,0,2.7,0,3.7,0c30.7,0,61.8,0,92.5,0c2.1,0,3.7,0.6,5.5,1.5
			c11.6,6.7,22.8,13.1,34.7,19.8c0.9,0.3,1.5,0.9,2.1,1.5c0,0.3-0.3,0.3-0.3,0.6C442.2,570.2,416.9,570.2,391.4,570.2z"/>
		<path class="st0" d="M782.3,699.8C782.3,699.8,782.3,699.5,782.3,699.8c-0.6-0.6-1.2-0.6-2.1-0.9c-9.7-2.7-19.8-5.5-29.8-7.9
			c-70-18.9-140-37.4-209.6-56c-77.9-20.7-156.1-41.7-234-62.4c-2.1-0.6-3.7-0.3-5.5,1.5c-13.1,13.1-26.5,26.5-39.9,39.9
			c-8.2,8.2-16.4,16.4-24.9,24.6c-8.8,8.8-18,18-26.8,26.8c-18,15.5-25.3,35.6-74.8,42c45,2.4,72.1-0.9,88.5-7
			C410.2,699.8,596.1,699.8,782.3,699.8z"/>
		<path class="st0" d="M564.5,241.6c21,77.9,42,155.8,62.7,233.7c14.9,56,30.1,112,45,168c0.6,2.1,1.5,3,3.7,3.7
			c45.9,12.2,91.9,24.6,137.8,36.8c15.2,7.9,31.9,20.1,47.5,50.5c-1.5-16.7-6.1-30.1-12.2-41.1l0,0l0,0c-0.6-0.6-0.9-1.5-1.2-2.1
			L545.9,169.5c-0.3,1.2-0.3,2.1,0.3,3C552,195.3,558.1,218.5,564.5,241.6z"/>
		<path class="st0" d="M644.8,630.7c-22.2-81.8-44.1-164-66-245.8c-0.3,0-0.6,0-0.9,0c0,61.8,0,123.5,0,185.6c-4.9,0-9.7,0.3-14.3,0
			c-1.5,0-2.7-0.3-4-1.2c-11.9-6.7-23.7-13.7-35.6-20.4c-0.6-0.3-0.9-0.9-1.5-1.2c0-0.3,0.3-0.3,0.3-0.6c3.7-0.3,7-0.3,10.6-0.3
			s7,0,10.6,0s7,0.3,10.6-0.3c0-69.7,0-139,0-208.4c-0.3,0-0.3-0.3-0.6-0.3c-35,60.2-69.7,120.2-104.7,180.7
			C514.6,556.2,579.7,593.3,644.8,630.7C644.8,631,644.8,630.7,644.8,630.7z M521.3,508.7L521.3,508.7L521.3,508.7
			c-3.3-2.4-6.7-5.2-10.3-7.9c-0.3,0.6-0.6,0.9-0.9,1.5c-1.5,2.4-3,4.6-4.3,7c0,0.3-0.3,0.3-0.3,0.6c-0.3-0.6-0.6-1.8-1.2-2.7
			c-1.5-1.8-2.7-4-4-6.1c-1.5,1.2-3.3,2.7-4.9,3.7c-1.5,1.2-3,2.4-4.6,3.7c-0.3,0-0.3-0.3-0.6-0.6l0,0l0,0c1.5-1.8,3-3.7,4.9-5.5
			c0.9-1.2,2.1-2.1,3-3.3c-2.7-3-6.1-3.3-9.1-3.3c-3.3-0.3-13.7-1.2-16.7-1.5l0,0l0,0c0.6,0,1.5,0,2.4,0l0,0c0.6,0,1.2,0,1.8,0
			c1.2,0,2.4,0,3.7-0.3c3.3-0.3,6.4-0.3,7.9-0.3c0.9,0,1.8-0.3,3-0.3c3,0,4.9-1.2,7-3c-2.7-3.3-5.5-6.7-8.5-10l0,0l0.3-0.3l0,0
			c3.7,2.7,7,5.5,10.6,7.9c2.7-3,4.6-6.1,4.9-10.3l0,0l0,0c0.6,4,2.4,7,5.5,10.3c3-2.1,6.1-4.3,8.8-6.7c0.6-0.6,1.2-0.9,1.8-1.2l0,0
			l0,0l0.3,0.3c-2.7,3-5.5,6.4-8.5,9.7c1.8,1.2,3.3,3,5.8,3c3.3,0.3,6.7,0.6,10.3,0.9c1.2,0,10,0.3,14.3,0.9l0,0l0,0
			c-0.6,0-1.2,0-1.8,0.3c-0.6,0-0.9,0-1.5,0c-0.3,0-0.9,0-1.2,0s-0.6,0-0.9,0c-1.2,0-2.7,0.3-4.3,0.3c-0.6,0-1.2,0-2.1,0
			c-0.6,0-0.9,0-1.5,0c-0.6,0-1.2,0-1.8,0c-3.3,0.3-6.7,0.6-8.2,0.6c-1.8,0-3.3,0.9-4.9,1.8c-0.6,0.3-1.2,0.6-1.8,1.2
			C516.1,502.3,518.8,505.7,521.3,508.7L521.3,508.7z"/>
	</g>
	<g>
		<g class="st5">
			<path class="st0" d="M61.9,810.5c30.9,0,56.1,25,56.1,55.9c0,13.8-5,26.4-13.3,36.2c-1,1.1-2.1,2.2-3.2,3.4
				c-10.1,10.3-24,16.5-39.4,16.5H6V810.4L61.9,810.5z M25.9,902.7h36.1c19.9,0,36.1-16.2,36.1-36.1c0-19.9-16.2-36.1-36.1-36.1
				H25.9V902.7z"/>
			<path class="st0" d="M224.8,902.7l10.3,20h-22.4l-10.3-20l-10.7-21l-0.5-1c-3.5-5.8-9.8-9.6-17-9.6h-20v51.6h-20V810.5h70.8
				c8.3,0,15.9,3.4,21.3,8.8c5.4,5.6,8.8,13.1,8.8,21.5c0,12.2-7.2,22.8-17.6,27.6c-2.7,1.3-5.6,2.1-8.7,2.4L224.8,902.7z
				 M204.9,851.1c1.4,0,2.9-0.3,4.2-1c3.7-1.6,6.1-5.3,6.1-9.3c0-3.7-1.9-6.2-3-7.4c-1.3-1.3-3.7-2.9-7.2-2.9h-50.8v20.7
				L204.9,851.1z"/>
			<path class="st0" d="M271.2,840.7v10.4h72.1v20h-72.1v21.2c0,5.6,4.6,10.3,10.3,10.3h81.9v20h-81.9c-16.7,0-30.1-13.6-30.1-30.3
				v-51.6c0-16.7,13.5-30.3,30.1-30.3h81.9v20h-81.9C275.9,830.4,271.2,835,271.2,840.7z"/>
			<path class="st0" d="M487.6,922.5h-22.4l-10.3-20l-24.5-48.1l-24.5,48.1l-10.3,20h-22.4l10.3-20l47-92.2l47,92.2L487.6,922.5z"/>
			<path class="st0" d="M609.4,810.4v112.2h-20v-71.5l-19.7,15.1l-16.3,12.7l-16.3-12.7l-19.7-15.1v71.5h-20V810.4l20,15.4
				l36.1,27.7l36.1-27.7L609.4,810.4z"/>
		</g>
		<g class="st5">
			<path class="st0" d="M737.6,810.4v112.2h-20v-51.4h-72.1v51.4h-20V810.4h20v40.7h72.1v-40.7H737.6z"/>
			<path class="st0" d="M865.8,810.4v56.1c0,30.9-25.2,56.1-56.1,56.1s-56.1-25.2-56.1-56.1v-56.1h20v56.1
				c0,19.9,16.2,36.1,36.1,36.1c19.9,0,36.1-16.2,36.1-36.1v-56.1H865.8z"/>
			<path class="st0" d="M994,886.8c0,19.7-16,35.7-35.7,35.7h-76.4V810.4h70.7c16.7,0,30.3,13.6,30.3,30.3c0,6.1-1.8,11.7-4.8,16.3
				C987.6,863.4,994,874.3,994,886.8z M901.8,850.9h50.8c5.6,0,10.3-4.6,10.3-10.3s-4.6-10.3-10.3-10.3h-50.8V850.9z M958.3,902.4
				c8.7,0,15.7-7.1,15.7-15.7c0-8.7-7.1-15.7-15.7-15.7h-56.4v31.6h56.4V902.4z"/>
		</g>
	</g>
</g>
</svg>
