<?xml version="1.0" encoding="utf-8"?>
<!-- Generator: Adobe Illustrator 25.0.1, SVG Export Plug-In . SVG Version: 6.00 Build 0)  -->
<svg version="1.1" id="Capa_1" xmlns="http://www.w3.org/2000/svg" xmlns:xlink="http://www.w3.org/1999/xlink" x="0px" y="0px"
	 viewBox="0 0 1000 1000" style="enable-background:new 0 0 1000 1000;" xml:space="preserve">
<style type="text/css">
	.st0{fill:#C23B4D;}
</style>
<g>
	<path class="st0" d="M727.14,570.81H623.51c-0.65,0-1.28-0.26-1.74-0.72L513.8,462.12H37.08c-1.36,0-2.46-1.1-2.46-2.46
		s1.1-2.46,2.46-2.46h477.74c0.65,0,1.28,0.26,1.74,0.72l107.97,107.97h101.6l27.09-27.08c0.46-0.46,1.08-0.72,1.74-0.72h121.33
		c1.36,0,2.46,1.1,2.46,2.46s-1.1,2.46-2.46,2.46H755.97l-27.08,27.09C728.42,570.55,727.8,570.81,727.14,570.81z"/>
	<path class="st0" d="M995.08,545.46h-85.1c-2.72,0-4.92-2.2-4.92-4.92s2.2-4.92,4.92-4.92h85.1c2.72,0,4.92,2.2,4.92,4.92
		S997.8,545.46,995.08,545.46z"/>
	<path class="st0" d="M514.81,462.12c-0.63,0-1.26-0.24-1.74-0.72c-0.96-0.96-0.96-2.52,0-3.48l31.6-31.6
		c0.96-0.96,2.52-0.96,3.47,0c0.96,0.96,0.96,2.51,0,3.47l-31.6,31.6C516.07,461.88,515.44,462.12,514.81,462.12z"/>
	<polygon class="st0" points="591.28,575.31 566.84,575.31 475.53,480.09 499.96,480.09 	"/>
	<polygon class="st0" points="548.62,575.31 524.19,575.31 432.87,480.09 457.31,480.09 	"/>
	<polygon class="st0" points="414.65,480.09 390.22,480.09 452.5,541.39 476.93,541.39 	"/>
	<polygon class="st0" points="372,480.09 347.56,480.09 409.84,541.39 434.28,541.39 	"/>
	<polygon class="st0" points="329.34,480.09 304.91,480.09 367.18,541.39 391.62,541.39 	"/>
	<polygon class="st0" points="286.69,480.09 262.25,480.09 324.53,541.39 348.96,541.39 	"/>
	<polygon class="st0" points="244.03,480.09 219.6,480.09 281.88,541.39 306.31,541.39 	"/>
	<rect x="37.07" y="424.69" class="st0" width="25.7" height="8.43"/>
	<rect x="72.67" y="424.69" class="st0" width="25.7" height="8.43"/>
	<rect x="117.33" y="424.69" class="st0" width="12.85" height="8.43"/>
	<rect x="247.51" y="424.69" class="st0" width="12.85" height="8.43"/>
	<rect x="289.21" y="424.69" class="st0" width="12.85" height="8.43"/>
	<rect x="336.12" y="424.69" class="st0" width="12.85" height="8.43"/>
	<polygon class="st0" points="0,575.31 44.66,575.31 44.66,526.44 	"/>
</g>
</svg>
