<?xml version="1.0" encoding="utf-8"?>
<!-- Generator: Adobe Illustrator 25.0.1, SVG Export Plug-In . SVG Version: 6.00 Build 0)  -->
<svg version="1.1" id="Capa_1" xmlns="http://www.w3.org/2000/svg" xmlns:xlink="http://www.w3.org/1999/xlink" x="0px" y="0px"
	 viewBox="0 0 1000 1000" style="enable-background:new 0 0 1000 1000;" xml:space="preserve">
<style type="text/css">
	.st0{fill:#C23B4D;}
</style>
<path class="st0" d="M990.28,250.47c-127.24,13.42-254.48,26.87-381.72,40.29c-1.3,0.13-2.49,0.94-3.3,2.18
	c-48.01,75.04-98.15,147.29-150.19,216.67c-0.88,1.14-1.31,2.73-1.23,4.27c1.59,31.39,2.8,62.79,3.61,94.19
	c0.05,1.59,0.59,3.09,1.56,4.16c12.19,13.88,24.3,27.89,36.33,42.02c1.95,2.3,5.12,2.28,7.01-0.09c1.91-2.37,1.86-6.17-0.13-8.49
	c-11.57-13.57-23.22-27-34.92-40.32c-0.79-29.85-1.94-59.68-3.43-89.51c51.25-68.23,100.66-139.23,148.02-212.92
	c126.6-12.96,253.2-25.92,379.8-38.89c2.72-0.27,4.61-3.54,4.23-7.3C995.52,252.99,993.01,250.17,990.28,250.47z"/>
<path class="st0" d="M525.1,699.9c-1.25,0-2.54,0.6-3.5,1.77c-1.93,2.37-1.92,6.15,0,8.53c7.9,9.62,15.77,19.32,23.59,29.06
	c-0.08,9.56-0.19,19.12-0.34,28.68c-145.59-2.28-291.2-4.55-436.79-6.82c-2.76-0.05-4.99,2.34-5.05,5.3
	c-0.06,2.95,2.13,5.43,4.85,5.47c147.24,2.76,294.48,5.52,441.72,8.28c2.73,0.02,5.02-2.63,5.07-5.99
	c0.22-12.45,0.37-24.91,0.47-37.35c0.02-1.61-0.48-3.17-1.42-4.31c-8.32-10.35-16.69-20.64-25.1-30.85
	C527.62,700.46,526.39,699.9,525.1,699.9z"/>
<path class="st0" d="M63.96,755.11c-16.99-0.23-33.98-0.47-50.97-0.71c-5.47-0.08-9.99,4.53-10.07,10.3
	c-0.08,5.8,4.23,10.51,9.71,10.64c16.99,0.34,33.98,0.69,50.96,1.04c5.46,0.12,10.02-4.58,10.11-10.46
	C73.8,760.03,69.43,755.18,63.96,755.11z"/>
<path class="st0" d="M589.01,198.73c-1.36,0.2-2.28,1.69-2.06,3.39c2.45,19.09,4.76,38.19,6.93,57.29
	c-51.73,82.29-106.04,161.28-162.62,236.85c-18.33,1.03-36.65,2.05-54.97,3.08c-1.36,0.06-2.4,1.45-2.31,3.04
	c0.08,1.61,1.27,2.87,2.63,2.77c18.66-1.02,37.33-2.03,56-3.05c0.68-0.02,1.24-0.38,1.7-0.96
	c57.12-76.15,111.95-155.77,164.16-238.75c0.41-0.62,0.55-1.45,0.48-2.26c-2.22-19.55-4.58-39.11-7.08-58.64
	C591.66,199.79,590.4,198.55,589.01,198.73z"/>
<path class="st0" d="M549.23,797.59c-117.07-2.72-234.14-5.44-351.22-8.16c-0.63-0.01-1.31,0.27-1.77,0.77
	c-2.98,3.16-5.97,6.32-8.95,9.47c-1,1.05-1.04,2.78-0.11,3.89c0.95,1.11,2.5,1.16,3.5,0.09c2.74-2.89,5.48-5.78,8.21-8.68
	c116.73,2.89,233.45,5.79,350.18,8.68c1.38,0.03,2.52-1.3,2.55-2.98C551.66,799.01,550.61,797.63,549.23,797.59z"/>
<path class="st0" d="M993.08,277.87c-86.88,8.62-173.76,17.23-260.64,25.85c-1.34,0.14-2.33,1.68-2.15,3.43
	c0.17,1.76,1.42,3.07,2.78,2.94c86.89-8.48,173.78-16.96,260.68-25.44c1.36-0.15,2.33-1.76,2.13-3.63
	C995.7,279.15,994.44,277.74,993.08,277.87z"/>
<path class="st0" d="M984.22,196.17c-26.16,3.1-52.32,6.19-78.47,9.28c-5.43,0.64-9.14,7.11-8.3,14.43
	c0.83,7.31,5.93,12.77,11.35,12.17c26.18-2.93,52.35-5.86,78.53-8.79c5.44-0.58,9.18-7.18,8.31-14.68
	C994.77,201.1,989.65,195.52,984.22,196.17z"/>
<path class="st0" d="M872.61,406.64c-23.13,1.66-46.26,3.3-69.39,4.96c-2.61,0.19-5.05,1.71-6.72,4.29
	c-51.57,78.28-105.36,153.6-161.12,225.85c-1.84,2.36-2.81,5.51-2.77,8.82c0.25,17.93,0.38,35.87,0.39,53.79
	c-0.01,6.82,4.43,12.41,9.9,12.43c5.46,0.05,9.97-5.56,9.92-12.44c0-16.3-0.11-32.61-0.33-48.9
	c54.1-69.89,106.36-142.64,156.57-218.19c21.77-1.41,43.55-2.84,65.32-4.25c5.45-0.34,9.53-6.54,9.02-13.85
	C882.92,411.88,878.07,406.26,872.61,406.64z"/>
<path class="st0" d="M642.82,734.57c-2.74-0.02-4.95,2.73-5,6.18c-0.13,15.35-0.35,30.69-0.66,46.02c-0.06,3.44,2.07,6.25,4.83,6.32
	c2.74,0.09,5-2.69,5.09-6.12c0.31-15.38,0.54-30.76,0.66-46.14C647.75,737.38,645.57,734.58,642.82,734.57z"/>
<path class="st0" d="M935.91,408.85c-6.78,0.48-13.56,0.94-20.34,1.42c-2.74,0.17-4.76,3.33-4.49,6.99
	c0.24,3.69,2.67,6.49,5.39,6.32c6.78-0.45,13.56-0.91,20.35-1.36c2.74-0.18,4.75-3.3,4.5-7.02
	C941.08,411.5,938.63,408.68,935.91,408.85z"/>
<path class="st0" d="M338.5,504.33c-0.21-3.4-2.7-6.04-5.65-5.86c-2.94,0.19-5.16,3.05-4.96,6.44c0.22,3.39,2.68,6.03,5.64,5.86
	C336.46,510.63,338.68,507.75,338.5,504.33z"/>
<path class="st0" d="M306.63,506.09c-0.17-3.37-2.72-5.97-5.64-5.8c-2.94,0.18-5.16,3.03-4.96,6.39c0.18,3.37,2.69,5.97,5.63,5.8
	C304.59,512.33,306.83,509.5,306.63,506.09z"/>
<path class="st0" d="M274.78,507.85c-0.17-3.33-2.72-5.92-5.64-5.75c-2.93,0.16-5.16,3-4.96,6.34c0.21,3.34,2.7,5.92,5.63,5.75
	C272.72,514.04,274.99,511.19,274.78,507.85z"/>
<path class="st0" d="M692.9,230.25c-0.44-3.74-3.16-6.49-6.08-6.14c-2.89,0.35-4.93,3.65-4.47,7.38c0.44,3.73,3.13,6.49,6.06,6.13
	C691.32,237.3,693.35,233.98,692.9,230.25z"/>
<path class="st0" d="M661.21,234c-0.44-3.73-3.16-6.43-6.07-6.08c-2.9,0.33-4.9,3.63-4.48,7.33c0.42,3.69,3.17,6.43,6.06,6.08
	C659.64,241.01,661.66,237.72,661.21,234z"/>
<path class="st0" d="M629.53,237.76c-0.44-3.69-3.14-6.38-6.07-6.03c-2.92,0.35-4.9,3.63-4.48,7.28c0.43,3.67,3.14,6.37,6.05,6.03
	C627.94,244.68,629.96,241.44,629.53,237.76z"/>
</svg>
