<?xml version="1.0" encoding="utf-8"?>
<!-- Generator: Adobe Illustrator 25.0.1, SVG Export Plug-In . SVG Version: 6.00 Build 0)  -->
<svg version="1.1" id="Capa_1" xmlns="http://www.w3.org/2000/svg" xmlns:xlink="http://www.w3.org/1999/xlink" x="0px" y="0px"
	 viewBox="0 0 1000 1000" style="enable-background:new 0 0 1000 1000;" xml:space="preserve">
<style type="text/css">
	.st0{fill:#C23B4D;}
</style>
<g>
	<polygon class="st0" points="971.46,33.54 999.67,33.54 999.67,75.49 871.3,203.86 871.3,540.77 806.01,606.06 806.01,936.87 
		777.79,936.87 777.79,594.37 843.08,529.08 843.08,192.17 971.46,63.8 	"/>
	<polygon class="st0" points="890.57,33.54 918.79,33.54 918.79,74.85 811.81,209.4 811.81,541.28 757.4,609.67 757.4,934.72 
		757.02,936.87 729.19,936.87 729.19,597.88 783.59,529.51 783.59,197.76 890.57,63.3 	"/>
	<polygon class="st0" points="809.69,33.54 837.91,33.54 837.91,74.21 752.32,214.94 752.32,541.79 708.8,613.28 708.8,935.15 
		708.03,936.87 680.58,936.87 680.58,601.39 724.11,529.93 724.11,203.35 809.69,62.8 	"/>
	<polygon class="st0" points="728.8,33.54 757.02,33.54 757.02,73.57 692.84,220.47 692.84,542.3 660.19,616.89 660.19,964.13 
		659.04,965.42 631.97,965.42 631.97,604.9 664.62,530.35 664.62,208.93 728.8,62.31 	"/>
	<polygon class="st0" points="647.92,33.54 676.14,33.54 676.14,72.93 633.35,226.01 633.35,542.81 611.58,620.5 611.58,857.25 
		610.05,858.11 583.37,858.11 583.37,608.4 605.13,530.78 605.13,214.52 647.92,61.81 	"/>
	<polygon class="st0" points="567.04,33.54 595.26,33.54 595.26,72.29 573.86,231.55 573.86,543.32 562.98,624.11 562.98,822.31 
		561.06,822.74 534.76,822.74 534.76,611.91 545.64,531.2 545.64,220.11 567.04,61.31 	"/>
	<polygon class="st0" points="27.89,33.54 -0.33,33.54 -0.33,75.49 128.05,203.86 128.05,540.77 193.34,606.06 193.34,937.94 
		221.55,937.94 221.55,594.37 156.27,529.08 156.27,192.17 27.89,63.8 	"/>
	<polygon class="st0" points="108.78,33.54 80.56,33.54 80.56,74.85 187.54,209.4 187.54,541.28 241.94,609.67 241.94,935.79 
		242.33,937.94 270.16,937.94 270.16,597.88 215.75,529.51 215.75,197.76 108.78,63.3 	"/>
	<polygon class="st0" points="189.66,33.54 161.44,33.54 161.44,74.21 247.02,214.94 247.02,541.79 290.55,613.28 290.55,936.22 
		291.32,937.94 318.77,937.94 318.77,601.39 275.24,529.93 275.24,203.35 189.66,62.8 	"/>
	<polygon class="st0" points="270.54,33.54 242.32,33.54 242.32,73.57 306.51,220.47 306.51,542.3 339.16,616.89 339.16,965.42 
		340.31,966.7 367.37,966.7 367.37,604.9 334.73,530.35 334.73,208.93 270.54,62.31 	"/>
	<polygon class="st0" points="351.43,33.54 323.21,33.54 323.21,72.93 366,226.01 366,542.81 387.76,620.5 387.76,857.68 
		389.3,858.54 415.98,858.54 415.98,608.4 394.22,530.78 394.22,214.52 351.43,61.81 	"/>
	<polygon class="st0" points="432.31,33.54 404.09,33.54 404.09,72.29 425.49,231.55 425.49,543.32 436.37,624.11 436.37,822.31 
		438.29,822.74 464.59,822.74 464.59,611.91 453.71,531.2 453.71,220.11 432.31,61.31 	"/>
	<rect x="486.15" y="33.54" class="st0" width="28.22" height="789.19"/>
</g>
</svg>
