<?xml version="1.0" encoding="utf-8"?>
<!-- Generator: Adobe Illustrator 25.0.1, SVG Export Plug-In . SVG Version: 6.00 Build 0)  -->
<svg version="1.1" id="Capa_1" xmlns="http://www.w3.org/2000/svg" xmlns:xlink="http://www.w3.org/1999/xlink" x="0px" y="0px"
	 viewBox="0 0 1000 1000" style="enable-background:new 0 0 1000 100;" xml:space="preserve">
<style type="text/css">
	.st0{fill:#C23B4D;}
</style>
<polygon class="st0" points="19.29,530.68 -0.33,530.68 50.6,469.57 70.22,469.57 "/>
<polygon class="st0" points="63.55,530.68 43.93,530.68 94.86,469.57 114.48,469.57 "/>
<polygon class="st0" points="107.81,530.68 88.19,530.68 139.12,469.57 158.74,469.57 "/>
<polygon class="st0" points="152.07,530.68 132.45,530.68 183.38,469.57 203,469.57 "/>
<polygon class="st0" points="196.33,530.68 176.71,530.68 227.64,469.57 247.26,469.57 "/>
<polygon class="st0" points="240.59,530.68 220.97,530.68 271.9,469.57 291.52,469.57 "/>
<polygon class="st0" points="284.85,530.68 265.23,530.68 316.15,469.57 335.78,469.57 "/>
<polygon class="st0" points="329.11,530.68 309.49,530.68 360.41,469.57 380.04,469.57 "/>
<polygon class="st0" points="373.37,530.68 353.75,530.68 404.67,469.57 424.3,469.57 "/>
<polygon class="st0" points="417.63,530.68 398.01,530.68 448.94,469.57 468.55,469.57 "/>
<polygon class="st0" points="461.89,530.68 442.27,530.68 493.19,469.57 512.82,469.57 "/>
<polygon class="st0" points="506.15,530.68 486.53,530.68 537.45,469.57 557.07,469.57 "/>
<polygon class="st0" points="550.41,530.68 530.79,530.68 581.71,469.57 601.33,469.57 "/>
<polygon class="st0" points="594.67,530.68 575.05,530.68 625.97,469.57 645.59,469.57 "/>
<polygon class="st0" points="638.93,530.68 619.31,530.68 670.23,469.57 689.85,469.57 "/>
<polygon class="st0" points="683.19,530.68 663.57,530.68 714.49,469.57 734.11,469.57 "/>
<polygon class="st0" points="727.45,530.68 707.83,530.68 758.75,469.57 778.37,469.57 "/>
<polygon class="st0" points="771.71,530.68 752.09,530.68 803.01,469.57 822.63,469.57 "/>
<polygon class="st0" points="815.97,530.68 796.35,530.68 847.27,469.57 866.89,469.57 "/>
<polygon class="st0" points="860.23,530.68 840.61,530.68 891.53,469.57 911.15,469.57 "/>
<polygon class="st0" points="904.49,530.68 884.87,530.68 935.79,469.57 955.41,469.57 "/>
<polygon class="st0" points="948.75,530.68 929.13,530.68 980.05,469.57 999.67,469.57 "/>
</svg>
