<svg xmlns="http://www.w3.org/2000/svg" xmlns:xlink="http://www.w3.org/1999/xlink" viewBox="0 0 990.68 708.31"><defs><style>.cls-1{fill:none;}.cls-2{isolation:isolate;}.cls-28,.cls-3,.cls-39{opacity:0.2;}.cls-12,.cls-14,.cls-20,.cls-21,.cls-24,.cls-38,.cls-39,.cls-4{fill:#e7334f;}.cls-5{fill:url(#adgo_rojo_);}.cls-6{fill:url(#Degradado_sin_nombre_35);}.cls-34,.cls-7,.cls-9{fill:#010101;}.cls-8{fill:url(#adgo_rojo_2);}.cls-9{opacity:0.51;}.cls-10,.cls-17,.cls-18,.cls-19,.cls-21{opacity:0.5;}.cls-10{fill:url(#adgo_rojo_3);}.cls-11,.cls-12{mix-blend-mode:lighten;}.cls-11,.cls-24{opacity:0.8;}.cls-11{fill:url(#Áåçûìÿííûé_ãðàäèåíò_56);}.cls-13{fill:url(#adgo_rojo_4);}.cls-14{opacity:0.54;}.cls-15{fill:url(#adgo_rojo_5);}.cls-16{fill:#202045;}.cls-17{fill:url(#Áåçûìÿííûé_ãðàäèåíò_15);}.cls-18{fill:url(#Áåçûìÿííûé_ãðàäèåíò_15-2);}.cls-19{fill:url(#Áåçûìÿííûé_ãðàäèåíò_15-3);}.cls-20{opacity:0.7;}.cls-22{fill:url(#adgo_rojo_6);}.cls-23{fill:url(#adgo_rojo_7);}.cls-25{opacity:0.1;}.cls-26{fill:#8d2035;}.cls-27{fill:url(#adgo_rojo_8);}.cls-28{fill:#131329;}.cls-29{fill:url(#adgo_rojo_9);}.cls-30{fill:url(#adgo_rojo_10);}.cls-31{fill:url(#adgo_rojo_11);}.cls-32{fill:url(#adgo_rojo_12);}.cls-33{fill:url(#adgo_rojo_13);}.cls-34,.cls-38{opacity:0.4;}.cls-35{fill:url(#adgo_rojo_14);}.cls-36{fill:url(#adgo_rojo_15);}.cls-37{fill:url(#adgo_rojo_16);}.cls-40{clip-path:url(#clip-path);}.cls-41{fill:url(#adgo_rojo_17);}.cls-42{clip-path:url(#clip-path-2);}.cls-43{fill:url(#adgo_rojo_18);}</style><linearGradient id="adgo_rojo_" x1="139.18" y1="406.66" x2="237.66" y2="406.66" gradientUnits="userSpaceOnUse"><stop offset="0" stop-color="#e7324e"/><stop offset="0.65" stop-color="#4f121b"/><stop offset="1" stop-color="#010101"/></linearGradient><linearGradient id="Degradado_sin_nombre_35" x1="24.6" y1="490.29" x2="923.21" y2="490.29" gradientUnits="userSpaceOnUse"><stop offset="0" stop-color="#e7324e"/><stop offset="1" stop-color="#a22742"/></linearGradient><linearGradient id="adgo_rojo_2" x1="24.62" y1="551.56" x2="923.17" y2="551.56" xlink:href="#adgo_rojo_"/><linearGradient id="adgo_rojo_3" x1="35.6" y1="450.99" x2="911.7" y2="450.99" xlink:href="#adgo_rojo_"/><linearGradient id="Áåçûìÿííûé_ãðàäèåíò_56" x1="599.07" y1="617.42" x2="348.23" y2="284.55" gradientUnits="userSpaceOnUse"><stop offset="0" stop-color="#6dc4cb"/><stop offset="0.1" stop-color="#5da2af"/><stop offset="0.23" stop-color="#4a7a8f"/><stop offset="0.37" stop-color="#3b5974"/><stop offset="0.52" stop-color="#2f405f"/><stop offset="0.67" stop-color="#272e51"/><stop offset="0.82" stop-color="#222348"/><stop offset="1" stop-color="#202045"/></linearGradient><linearGradient id="adgo_rojo_4" x1="138.73" y1="356.94" x2="694.92" y2="356.94" xlink:href="#adgo_rojo_"/><linearGradient id="adgo_rojo_5" x1="246.03" y1="343.67" x2="680.07" y2="343.67" xlink:href="#adgo_rojo_"/><linearGradient id="Áåçûìÿííûé_ãðàäèåíò_15" x1="296.13" y1="281.78" x2="629.97" y2="281.78" gradientUnits="userSpaceOnUse"><stop offset="0" stop-color="#6dc4cb"/><stop offset="0.18" stop-color="#6cbfc9"/><stop offset="0.38" stop-color="#68b1c4"/><stop offset="0.61" stop-color="#6199bc"/><stop offset="0.84" stop-color="#5878b0"/><stop offset="1" stop-color="#515da7"/></linearGradient><linearGradient id="Áåçûìÿííûé_ãðàäèåíò_15-2" x1="463.05" y1="221.45" x2="629.97" y2="221.45" xlink:href="#Áåçûìÿííûé_ãðàäèåíò_15"/><linearGradient id="Áåçûìÿííûé_ãðàäèåíò_15-3" x1="296.13" y1="221.45" x2="463.05" y2="221.45" xlink:href="#Áåçûìÿííûé_ãðàäèåíò_15"/><linearGradient id="adgo_rojo_6" x1="463.05" y1="317.82" x2="629.97" y2="317.82" xlink:href="#adgo_rojo_"/><linearGradient id="adgo_rojo_7" x1="296.13" y1="317.82" x2="463.05" y2="317.82" xlink:href="#adgo_rojo_"/><linearGradient id="adgo_rojo_8" x1="550.19" y1="661.13" x2="616.71" y2="661.13" xlink:href="#adgo_rojo_"/><linearGradient id="adgo_rojo_9" x1="550.19" y1="570.36" x2="616.71" y2="570.36" xlink:href="#adgo_rojo_"/><linearGradient id="adgo_rojo_10" x1="61.9" y1="658.23" x2="128.42" y2="658.23" xlink:href="#adgo_rojo_"/><linearGradient id="adgo_rojo_11" x1="61.9" y1="567.45" x2="128.42" y2="567.45" xlink:href="#adgo_rojo_"/><linearGradient id="adgo_rojo_12" x1="0" y1="292.91" x2="66.52" y2="292.91" xlink:href="#adgo_rojo_"/><linearGradient id="adgo_rojo_13" x1="0" y1="202.13" x2="66.52" y2="202.13" xlink:href="#adgo_rojo_"/><linearGradient id="adgo_rojo_14" x1="218.95" y1="306.41" x2="727.98" y2="306.41" xlink:href="#adgo_rojo_"/><linearGradient id="adgo_rojo_15" x1="459.71" y1="176.06" x2="580.49" y2="176.06" xlink:href="#adgo_rojo_"/><linearGradient id="adgo_rojo_16" x1="133.67" y1="205.62" x2="242.73" y2="205.62" xlink:href="#adgo_rojo_"/><clipPath id="clip-path" transform="translate(-4.66 -145.85)"><polygon class="cls-1" points="346.32 584.66 313.52 603.57 182.87 528.14 182.87 383.09 346.32 477.46 346.32 584.66"/></clipPath><linearGradient id="adgo_rojo_17" x1="213.47" y1="573.56" x2="308.97" y2="573.56" xlink:href="#adgo_rojo_"/><clipPath id="clip-path-2" transform="translate(-4.66 -145.85)"><polygon class="cls-1" points="735.03 694.64 767.83 713.55 898.48 638.12 898.48 493.07 735.03 587.43 735.03 694.64"/></clipPath><linearGradient id="adgo_rojo_18" x1="772.37" y1="683.53" x2="867.88" y2="683.53" xlink:href="#adgo_rojo_"/></defs><g class="cls-2"><g id="Capa_6" data-name="Capa 6"><g class="cls-3"><path class="cls-4" d="M252.44,425.58c-2.84-33.17-29.57-71.5-59.71-85.63-15.1-7.08-28.19-6.73-37.13-.46h0l-9.34,6.59,2.88,0c-4.65,6.79-6.87,16.4-5.85,28.32,2.84,33.16,29.57,71.5,59.71,85.63,10.36,4.85,19.77,6.21,27.54,4.57v2.65l9.48-6.69.12-.09.38-.27h0C249.18,453.89,253.83,441.89,252.44,425.58Z" transform="translate(-4.66 -145.85)"/><ellipse class="cls-4" cx="188.42" cy="406.66" rx="42.62" ry="73.81" transform="translate(-203.4 35.02) rotate(-34.89)"/><path class="cls-5" d="M211.53,465.18c-5.78,0-12.17-1.57-18.88-4.72-26.84-12.57-50.72-46.83-53.25-76.36-1.24-14.47,2.75-25.69,11.24-31.61s20.4-5.79,33.56.37c26.83,12.58,50.72,46.84,53.24,76.37,1.24,14.47-2.75,25.69-11.24,31.61A25.15,25.15,0,0,1,211.53,465.18ZM165.32,349.64a23.75,23.75,0,0,0-13.82,4.07c-8,5.6-11.8,16.35-10.61,30.26,2.48,29.06,26,62.77,52.39,75.14,12.64,5.93,24,6.11,32.07.51s11.8-16.35,10.61-30.26c-2.49-29.06-26-62.77-52.4-75.14C177.05,351.16,170.87,349.64,165.32,349.64Z" transform="translate(-4.66 -145.85)"/></g><path class="cls-4" d="M339.61,794.53c-8.16,0-16-1.65-21.77-5L32.85,625c-5.72-3.3-8.86-7.89-8.86-12.92,0-6,4.52-12.13,12.41-16.68l543.52-313.8c14.78-8.54,37.24-9.46,50.05-2.05L915,444.06c5.72,3.3,8.86,7.89,8.86,12.93,0,6.05-4.52,12.12-12.41,16.68L367.89,787.47C359.81,792.14,349.44,794.53,339.61,794.53ZM608.2,275.73c-9.61,0-19.75,2.34-27.67,6.91L37,596.44c-7.5,4.33-11.79,10-11.79,15.62,0,4.58,2.92,8.79,8.24,11.86l285,164.54c12.49,7.21,34.38,6.29,48.83-2.05L910.8,472.61c7.5-4.33,11.8-10,11.8-15.62,0-4.58-2.93-8.79-8.25-11.87l-285-164.53C623.72,277.33,616.14,275.73,608.2,275.73Z" transform="translate(-4.66 -145.85)"/><path class="cls-6" d="M923.21,381,882.27,388,629.67,242.2c-12.67-7.32-34.81-6.4-49.44,2.05L97,523.26,24.61,535.72v25.65h0c0,4.68,2.75,9.15,8.53,12.48l285,164.54c12.67,7.32,34.81,6.4,49.44-2l543.53-313.8C919,418,923,412.19,923.17,406.66h0Z" transform="translate(-4.66 -145.85)"/><path class="cls-7" d="M318.14,712.56,33.16,548c-12.68-7.31-11.09-20.09,3.55-28.54L580.23,205.67c14.63-8.44,36.77-9.36,49.44-2l285,164.54c12.67,7.32,11.08,20.1-3.55,28.55L367.58,710.51C353,719,330.81,719.87,318.14,712.56Z" transform="translate(-4.66 -145.85)"/><path class="cls-8" d="M911.11,396.71,367.58,710.51c-14.63,8.45-36.77,9.36-49.44,2L33.16,548c-5.09-2.93-7.83-6.75-8.41-10.81-.78,5.27,1.95,10.41,8.41,14.14l285,164.54c12.67,7.31,34.81,6.4,49.44-2L911.11,400c8.76-5.06,12.81-11.67,11.95-17.73C922.3,387.37,918.28,392.56,911.11,396.71Z" transform="translate(-4.66 -145.85)"/><path class="cls-9" d="M318.7,706.18,43.88,547.47c-12.27-7.08-10.73-19.45,3.43-27.63l533.44-307.9c14.16-8.17,35.58-9.06,47.84-2L903.42,368.68c12.26,7.08,10.73,19.44-3.43,27.62L366.55,704.2C352.39,712.37,331,713.26,318.7,706.18Z" transform="translate(-4.66 -145.85)"/><path class="cls-10" d="M318.7,699.1,43.88,540.38c-12.27-7.08-10.73-19.45,3.43-27.62l533.44-307.9c14.16-8.18,35.58-9.06,47.84-2L903.42,361.59c12.26,7.08,10.73,19.45-3.43,27.62L366.55,697.11C352.39,705.29,331,706.18,318.7,699.1Z" transform="translate(-4.66 -145.85)"/><path class="cls-11" d="M339.48,704.74c-8,0-15.55-1.6-21.22-4.88L43.43,541.15c-5.62-3.25-8.72-7.78-8.72-12.77,0-6,4.43-11.93,12.16-16.39l533.44-307.9c14.38-8.3,36.24-9.19,48.73-2L903.86,360.83c5.63,3.24,8.73,7.77,8.73,12.76,0,6-4.43,11.93-12.16,16.39L367,697.88C359.13,702.42,349.05,704.74,339.48,704.74Zm-20.33-6.41c12,6.92,33.06,6,47-2l533.44-307.9c7.17-4.14,11.27-9.55,11.27-14.86,0-4.33-2.78-8.31-7.83-11.23L628.15,203.64c-12-6.92-33-6-47,2L47.75,513.53c-7.16,4.13-11.27,9.54-11.27,14.85,0,4.33,2.79,8.32,7.84,11.23Z" transform="translate(-4.66 -145.85)"/><path class="cls-4" d="M339.48,704.47c-7.9,0-15.45-1.59-21.08-4.84L43.57,540.91C38,537.72,35,533.27,35,528.38c0-5.86,4.38-11.74,12-16.15l533.44-307.9c14.31-8.26,36-9.16,48.46-2L903.73,361.06c5.54,3.2,8.58,7.65,8.58,12.53,0,5.85-4.38,11.75-12,16.15L366.85,697.64C359,702.16,349,704.47,339.48,704.47ZM319,698.56c12.08,7,33.26,6.09,47.23-2l533.44-307.9c7.25-4.18,11.41-9.68,11.4-15.09,0-4.43-2.83-8.5-8-11.47L628.29,203.41c-12.08-7-33.26-6.08-47.23,2L47.62,513.29c-7.25,4.19-11.41,9.69-11.41,15.09,0,4.43,2.83,8.5,8,11.47Z" transform="translate(-4.66 -145.85)"/><path class="cls-12" d="M445.12,319.72a8.42,8.42,0,0,1-4.16-1.26l-28.24-16.31.65-1.13,28.24,16.31c2.08,1.19,4,1.41,5.41.6s2.19-2.59,2.19-5v-6.81c0-2.89,1-5.06,2.84-6.12s4.22-.85,6.72.6l5.9,3.41-.65,1.13-5.9-3.41c-2.08-1.2-4-1.41-5.42-.6s-2.18,2.59-2.18,5v6.81c0,2.89-1,5.06-2.84,6.12A5,5,0,0,1,445.12,319.72Z" transform="translate(-4.66 -145.85)"/><path class="cls-12" d="M434.14,326a8.45,8.45,0,0,1-4.17-1.26l-28.24-16.31.66-1.13,28.24,16.31c2.08,1.2,4,1.41,5.41.6s2.19-2.59,2.19-5v-6.81c0-2.89,1-5.07,2.84-6.12s4.22-.85,6.72.6l5.9,3.4-.66,1.14-5.9-3.41c-2.07-1.19-4-1.41-5.41-.6s-2.18,2.59-2.18,5v6.81c0,2.89-1,5.06-2.84,6.12A5.11,5.11,0,0,1,434.14,326Z" transform="translate(-4.66 -145.85)"/><path class="cls-12" d="M423.15,332.36A8.42,8.42,0,0,1,419,331.1l-28.24-16.31.65-1.13L419.64,330c2.09,1.19,4,1.4,5.42.6s2.18-2.59,2.18-5v-6.81c0-2.89,1-5.07,2.84-6.12s4.22-.84,6.72.6l5.9,3.4-.65,1.14-5.9-3.41c-2.08-1.2-4-1.41-5.42-.6s-2.18,2.59-2.18,5v6.81c0,2.89-1,5.06-2.84,6.12A5.09,5.09,0,0,1,423.15,332.36Z" transform="translate(-4.66 -145.85)"/><path class="cls-12" d="M412.16,338.68a8.45,8.45,0,0,1-4.16-1.26l-28.24-16.31.66-1.13,28.24,16.31c2.08,1.19,4,1.42,5.41.59s2.19-2.58,2.19-5v-6.81c0-2.89,1-5.07,2.84-6.12s4.21-.85,6.72.6l5.9,3.4-.66,1.14-5.9-3.41c-2.08-1.2-4-1.42-5.41-.6s-2.18,2.59-2.18,5v6.81c0,2.89-1,5.06-2.84,6.12A5.12,5.12,0,0,1,412.16,338.68Z" transform="translate(-4.66 -145.85)"/><path class="cls-12" d="M401.18,345a8.34,8.34,0,0,1-4.16-1.27l-28.24-16.3.65-1.13,28.24,16.3c2.08,1.2,4,1.41,5.42.6s2.18-2.58,2.18-5v-6.81c0-2.89,1-5.07,2.84-6.12s4.22-.85,6.72.6l5.9,3.4-.65,1.13-5.9-3.4c-2.08-1.2-4-1.42-5.42-.6s-2.18,2.58-2.18,5v6.81c0,2.89-1,5.06-2.84,6.12A5.09,5.09,0,0,1,401.18,345Z" transform="translate(-4.66 -145.85)"/><path class="cls-12" d="M390.2,351.32a8.31,8.31,0,0,1-4.16-1.27l-28.25-16.3.66-1.13,28.24,16.3c2.08,1.2,4,1.42,5.41.6s2.19-2.58,2.19-5v-6.82c0-2.89,1-5.06,2.84-6.11s4.22-.85,6.72.6l5.9,3.4-.66,1.13-5.9-3.4c-2.08-1.2-4-1.41-5.41-.6s-2.18,2.58-2.18,5v6.82c0,2.89-1,5.06-2.84,6.12A5.09,5.09,0,0,1,390.2,351.32Z" transform="translate(-4.66 -145.85)"/><path class="cls-12" d="M379.21,357.64a8.34,8.34,0,0,1-4.16-1.27l-28.24-16.3.65-1.13,28.24,16.3c2.08,1.2,4,1.41,5.42.6s2.18-2.58,2.18-5V344c0-2.89,1-5.06,2.84-6.12s4.23-.84,6.72.6l5.9,3.41-.65,1.13-5.9-3.4c-2.08-1.2-4-1.41-5.42-.6s-2.18,2.58-2.18,5v6.82c0,2.89-1,5.06-2.84,6.12A5.09,5.09,0,0,1,379.21,357.64Z" transform="translate(-4.66 -145.85)"/><path class="cls-12" d="M368.23,364a8.44,8.44,0,0,1-4.16-1.27l-28.25-16.3.66-1.13,28.24,16.3c2.08,1.2,4,1.41,5.41.6s2.19-2.58,2.19-5v-6.81c0-2.89,1-5.06,2.84-6.12s4.22-.84,6.72.6l5.9,3.41-.66,1.13-5.9-3.4c-2.07-1.2-4-1.42-5.41-.61s-2.18,2.59-2.18,5v6.81c0,2.89-1,5.07-2.84,6.12A5,5,0,0,1,368.23,364Z" transform="translate(-4.66 -145.85)"/><path class="cls-12" d="M357.24,370.28a8.44,8.44,0,0,1-4.16-1.27l-28.24-16.3.65-1.13,28.24,16.3c2.08,1.2,4,1.42,5.42.6s2.18-2.59,2.18-5v-6.81c0-2.89,1-5.06,2.84-6.12s4.22-.84,6.72.6l5.9,3.41-.65,1.13-5.9-3.41c-2.08-1.2-4-1.41-5.41-.6s-2.19,2.59-2.19,5v6.81c0,2.89-1,5.06-2.84,6.12A5,5,0,0,1,357.24,370.28Z" transform="translate(-4.66 -145.85)"/><path class="cls-12" d="M346.26,376.59a8.42,8.42,0,0,1-4.16-1.26L313.85,359l.66-1.14,28.24,16.31c2.08,1.2,4,1.41,5.41.6s2.19-2.59,2.19-5V363c0-2.89,1-5.06,2.84-6.12s4.21-.85,6.72.6l5.9,3.41-.66,1.13-5.89-3.41c-2.09-1.2-4-1.41-5.42-.6s-2.18,2.59-2.18,5v6.81c0,2.89-1,5.06-2.84,6.12A5,5,0,0,1,346.26,376.59Z" transform="translate(-4.66 -145.85)"/><path class="cls-12" d="M335.27,382.91a8.45,8.45,0,0,1-4.16-1.26l-28.24-16.31.65-1.13,28.24,16.31c2.09,1.2,4,1.41,5.42.6s2.18-2.59,2.18-5v-6.81c0-2.89,1-5.07,2.84-6.12s4.22-.85,6.72.6l5.9,3.4-.65,1.14-5.9-3.41c-2.07-1.19-4-1.41-5.41-.6s-2.19,2.59-2.19,5v6.81c0,2.89-1,5.06-2.84,6.12A5.06,5.06,0,0,1,335.27,382.91Z" transform="translate(-4.66 -145.85)"/><path class="cls-12" d="M324.29,389.23a8.42,8.42,0,0,1-4.16-1.26l-28.25-16.31.66-1.13,28.24,16.31c2.08,1.19,4,1.41,5.41.6s2.19-2.59,2.19-5v-6.81c0-2.89,1-5.07,2.84-6.12s4.23-.85,6.72.6l5.9,3.4-.66,1.14-5.89-3.41c-2.09-1.2-4-1.41-5.42-.6s-2.18,2.59-2.18,5v6.81c0,2.89-1,5.06-2.84,6.12A5.09,5.09,0,0,1,324.29,389.23Z" transform="translate(-4.66 -145.85)"/><path class="cls-12" d="M313.3,395.55a8.45,8.45,0,0,1-4.16-1.26L280.9,378l.65-1.13,28.24,16.31c2.08,1.19,4,1.41,5.42.59s2.18-2.58,2.18-5V382c0-2.89,1-5.07,2.85-6.12s4.21-.85,6.71.6l5.9,3.4L332.2,381l-5.9-3.41c-2.08-1.19-4-1.41-5.41-.6s-2.19,2.59-2.19,5v6.81c0,2.89-1,5.06-2.84,6.12A5.06,5.06,0,0,1,313.3,395.55Z" transform="translate(-4.66 -145.85)"/><path class="cls-12" d="M302.32,401.87a8.42,8.42,0,0,1-4.16-1.26L269.91,384.3l.66-1.13,28.24,16.31c2.08,1.2,4,1.41,5.41.59s2.19-2.58,2.19-5v-6.81c0-2.89,1-5.07,2.84-6.12s4.22-.85,6.72.6l5.9,3.4-.66,1.13-5.89-3.4c-2.08-1.2-4-1.42-5.42-.6s-2.18,2.59-2.18,5v6.81c0,2.88-1,5.06-2.84,6.12A5.09,5.09,0,0,1,302.32,401.87Z" transform="translate(-4.66 -145.85)"/><path class="cls-12" d="M291.33,408.19a8.36,8.36,0,0,1-4.16-1.27l-28.24-16.3.65-1.13,28.25,16.3c2.08,1.2,4,1.42,5.41.6s2.18-2.58,2.18-5v-6.82c0-2.89,1-5.06,2.85-6.11s4.22-.85,6.71.6l5.9,3.4-.65,1.13-5.9-3.4c-2.08-1.2-4-1.41-5.41-.6s-2.19,2.58-2.19,5v6.82c0,2.89-1,5.06-2.84,6.12A5.06,5.06,0,0,1,291.33,408.19Z" transform="translate(-4.66 -145.85)"/><path class="cls-12" d="M280.35,414.51a8.34,8.34,0,0,1-4.16-1.27l-28.25-16.3.66-1.13,28.24,16.3c2.08,1.2,4,1.41,5.41.6s2.19-2.58,2.19-5v-6.82c0-2.89,1-5.06,2.84-6.12s4.23-.84,6.72.61l5.9,3.4-.66,1.13-5.89-3.4c-2.09-1.2-4-1.41-5.42-.6s-2.18,2.58-2.18,5v6.82c0,2.89-1,5.06-2.84,6.12A5.09,5.09,0,0,1,280.35,414.51Z" transform="translate(-4.66 -145.85)"/><path class="cls-12" d="M269.36,420.83a8.47,8.47,0,0,1-4.16-1.27L237,403.26l.65-1.13,28.25,16.3c2.08,1.2,4,1.41,5.41.6s2.18-2.58,2.18-5v-6.81c0-2.89,1-5.06,2.85-6.12s4.21-.84,6.71.6l5.9,3.41-.65,1.13-5.9-3.4c-2.07-1.2-4-1.42-5.41-.6s-2.18,2.58-2.18,5V414c0,2.89-1,5.07-2.85,6.12A5,5,0,0,1,269.36,420.83Z" transform="translate(-4.66 -145.85)"/><path class="cls-12" d="M258.38,427.15a8.44,8.44,0,0,1-4.16-1.27L226,409.58l.65-1.13,28.24,16.3c2.08,1.2,4,1.42,5.42.6s2.18-2.59,2.18-5v-6.81c0-2.89,1-5.06,2.84-6.12s4.21-.84,6.72.6l5.9,3.41-.65,1.13-5.9-3.4c-2.08-1.2-4-1.42-5.42-.61s-2.18,2.59-2.18,5v6.81c0,2.89-1,5.06-2.84,6.12A5,5,0,0,1,258.38,427.15Z" transform="translate(-4.66 -145.85)"/><path class="cls-12" d="M247.39,433.46a8.45,8.45,0,0,1-4.16-1.26L215,415.9l.65-1.14,28.25,16.31c2.08,1.2,4,1.41,5.41.6s2.18-2.59,2.18-5v-6.81c0-2.89,1-5.06,2.85-6.12s4.22-.84,6.72.6l5.89,3.41-.65,1.13-5.9-3.41c-2.07-1.19-4-1.41-5.41-.6s-2.18,2.59-2.18,5v6.81c0,2.89-1,5.06-2.85,6.12A5,5,0,0,1,247.39,433.46Z" transform="translate(-4.66 -145.85)"/><path class="cls-12" d="M236.41,439.78a8.42,8.42,0,0,1-4.16-1.26L204,422.21l.65-1.13,28.24,16.31c2.09,1.2,4,1.41,5.42.6s2.18-2.59,2.18-5v-6.81c0-2.89,1-5.06,2.84-6.12s4.22-.84,6.72.6l5.9,3.41-.65,1.13-5.9-3.41c-2.09-1.2-4-1.41-5.41-.6s-2.19,2.59-2.19,5V433c0,2.89-1,5.06-2.84,6.12A5,5,0,0,1,236.41,439.78Z" transform="translate(-4.66 -145.85)"/><path class="cls-12" d="M490.13,320.24a5.09,5.09,0,0,1-2.56-.66c-1.83-1.06-2.84-3.23-2.84-6.12v-6.82c0-2.4-.78-4.17-2.19-5s-3.32-.61-5.41.6l-5.9,3.4-.65-1.13,5.9-3.4c2.5-1.45,4.89-1.66,6.72-.6s2.84,3.23,2.84,6.11v6.82c0,2.4.77,4.17,2.19,5s3.33.6,5.41-.6L660,221.39l.66,1.13L494.29,319A8.36,8.36,0,0,1,490.13,320.24Z" transform="translate(-4.66 -145.85)"/><path class="cls-12" d="M501.11,326.56a5.09,5.09,0,0,1-2.56-.66c-1.83-1.06-2.84-3.24-2.84-6.12V313c0-2.4-.77-4.17-2.18-5s-3.34-.6-5.42.6l-5.9,3.4-.65-1.13,5.9-3.4c2.51-1.46,4.89-1.67,6.72-.61S497,310.07,497,313v6.82c0,2.4.78,4.17,2.19,5s3.32.6,5.41-.6l166.32-96.45.65,1.13L505.28,325.29A8.4,8.4,0,0,1,501.11,326.56Z" transform="translate(-4.66 -145.85)"/><path class="cls-12" d="M512.1,332.88a5,5,0,0,1-2.56-.67c-1.83-1-2.84-3.23-2.84-6.11v-6.82c0-2.4-.78-4.17-2.19-5s-3.33-.6-5.41.6l-5.9,3.4-.65-1.13,5.89-3.4c2.51-1.45,4.9-1.67,6.73-.61s2.84,3.24,2.84,6.12v6.82c0,2.4.77,4.17,2.18,5s3.33.6,5.42-.6L681.92,234l.66,1.13L516.26,331.61A8.47,8.47,0,0,1,512.1,332.88Z" transform="translate(-4.66 -145.85)"/><path class="cls-12" d="M523.08,339.2a5,5,0,0,1-2.56-.67c-1.83-1-2.84-3.23-2.84-6.12V325.6c0-2.4-.77-4.17-2.19-5s-3.32-.61-5.41.59l-5.9,3.41-.65-1.13,5.9-3.41c2.5-1.44,4.89-1.66,6.72-.6s2.84,3.23,2.84,6.12v6.81c0,2.4.78,4.18,2.19,5s3.33.6,5.41-.6l166.32-96.46.65,1.14L527.25,337.93A8.47,8.47,0,0,1,523.08,339.2Z" transform="translate(-4.66 -145.85)"/><path class="cls-12" d="M534.07,345.51a5,5,0,0,1-2.56-.66c-1.83-1.05-2.84-3.23-2.84-6.12v-6.81c0-2.4-.78-4.17-2.19-5s-3.33-.6-5.41.59l-5.9,3.41-.65-1.13,5.89-3.41c2.51-1.44,4.9-1.65,6.73-.6S530,329,530,331.92v6.81c0,2.4.77,4.18,2.18,5s3.34.6,5.41-.6l166.32-96.46.66,1.13L538.23,344.25A8.45,8.45,0,0,1,534.07,345.51Z" transform="translate(-4.66 -145.85)"/><path class="cls-12" d="M545.05,351.83a5,5,0,0,1-2.56-.66c-1.83-1.06-2.84-3.23-2.84-6.12v-6.81c0-2.4-.78-4.17-2.18-5s-3.33-.6-5.42.6l-5.9,3.41-.65-1.13,5.9-3.41c2.5-1.44,4.89-1.66,6.72-.6s2.84,3.23,2.84,6.12v6.81c0,2.4.78,4.18,2.19,5s3.33.6,5.41-.6L714.88,253l.65,1.13L549.22,350.57A8.48,8.48,0,0,1,545.05,351.83Z" transform="translate(-4.66 -145.85)"/><path class="cls-12" d="M556,358.15a5,5,0,0,1-2.56-.66c-1.83-1.06-2.84-3.23-2.84-6.12v-6.81c0-2.4-.78-4.18-2.19-5s-3.33-.6-5.41.6l-5.9,3.41-.65-1.13,5.89-3.41c2.51-1.45,4.9-1.66,6.73-.6s2.84,3.23,2.84,6.12v6.81c0,2.4.77,4.18,2.18,5s3.33.6,5.41-.6L725.86,259.3l.66,1.13L560.2,356.89A8.45,8.45,0,0,1,556,358.15Z" transform="translate(-4.66 -145.85)"/><path class="cls-12" d="M567,364.47a5.09,5.09,0,0,1-2.56-.66c-1.83-1.06-2.84-3.23-2.84-6.12v-6.81c0-2.4-.78-4.18-2.19-5s-3.33-.59-5.41.6l-5.9,3.41-.65-1.13,5.9-3.41c2.5-1.45,4.89-1.66,6.72-.6s2.84,3.23,2.84,6.12v6.81c0,2.4.78,4.17,2.18,5s3.33.6,5.42-.6l166.31-96.46.66,1.13L571.18,363.21A8.42,8.42,0,0,1,567,364.47Z" transform="translate(-4.66 -145.85)"/><path class="cls-12" d="M578,370.79a5.06,5.06,0,0,1-2.56-.66c-1.83-1.06-2.85-3.23-2.85-6.12V357.2c0-2.4-.77-4.18-2.18-5s-3.33-.6-5.41.6l-5.9,3.41-.66-1.14,5.9-3.4c2.51-1.45,4.89-1.66,6.72-.6s2.85,3.23,2.85,6.12V364c0,2.4.77,4.17,2.18,5s3.34.61,5.41-.59l166.32-96.46.66,1.13L582.17,369.53A8.45,8.45,0,0,1,578,370.79Z" transform="translate(-4.66 -145.85)"/><path class="cls-12" d="M589,377.11a5.09,5.09,0,0,1-2.56-.66c-1.83-1.06-2.84-3.23-2.84-6.12v-6.81c0-2.41-.78-4.18-2.18-5s-3.34-.61-5.42.6l-5.9,3.41-.65-1.14,5.9-3.4c2.5-1.45,4.89-1.66,6.72-.6s2.84,3.23,2.84,6.12v6.81c0,2.4.78,4.17,2.19,5s3.33.6,5.41-.6l166.31-96.45.66,1.13L593.15,375.84A8.34,8.34,0,0,1,589,377.11Z" transform="translate(-4.66 -145.85)"/><path class="cls-12" d="M600,383.43a5,5,0,0,1-2.55-.66c-1.84-1.06-2.85-3.23-2.85-6.12v-6.82c0-2.4-.77-4.17-2.18-5s-3.33-.6-5.41.6l-5.9,3.4-.66-1.13,5.9-3.4c2.51-1.45,4.9-1.67,6.72-.61s2.84,3.23,2.84,6.12v6.82c0,2.4.78,4.17,2.19,5s3.33.6,5.41-.6L769.8,284.58l.66,1.13L604.14,382.16A8.37,8.37,0,0,1,600,383.43Z" transform="translate(-4.66 -145.85)"/><path class="cls-12" d="M611,389.75a5,5,0,0,1-2.56-.67c-1.83-1.05-2.84-3.23-2.84-6.11v-6.82c0-2.4-.78-4.17-2.18-5s-3.34-.6-5.42.6l-5.9,3.4-.65-1.13,5.9-3.4c2.5-1.45,4.89-1.67,6.72-.61s2.84,3.24,2.84,6.12V383c0,2.4.78,4.17,2.18,5s3.33.6,5.42-.6L780.78,290.9l.66,1.13L615.12,388.48A8.44,8.44,0,0,1,611,389.75Z" transform="translate(-4.66 -145.85)"/><path class="cls-12" d="M622,396.07a5,5,0,0,1-2.56-.67c-1.84-1-2.85-3.23-2.85-6.12v-6.81c0-2.4-.77-4.17-2.18-5s-3.33-.6-5.41.6l-5.9,3.4-.66-1.13,5.9-3.4c2.51-1.45,4.89-1.66,6.72-.61s2.84,3.23,2.84,6.12v6.81c0,2.4.78,4.18,2.19,5s3.34.6,5.41-.6l166.32-96.46.66,1.14L626.11,394.8A8.47,8.47,0,0,1,622,396.07Z" transform="translate(-4.66 -145.85)"/><path class="cls-12" d="M632.93,402.39a5,5,0,0,1-2.56-.67c-1.83-1.05-2.84-3.23-2.84-6.12v-6.81c0-2.4-.78-4.17-2.18-5s-3.34-.6-5.42.59l-5.9,3.41-.65-1.13,5.9-3.41c2.5-1.44,4.89-1.66,6.72-.6s2.84,3.23,2.84,6.12v6.81c0,2.4.78,4.18,2.19,5s3.33.6,5.41-.6l166.31-96.46.66,1.14L637.09,401.12A8.44,8.44,0,0,1,632.93,402.39Z" transform="translate(-4.66 -145.85)"/><path class="cls-12" d="M643.91,408.7a5,5,0,0,1-2.56-.66c-1.83-1.05-2.84-3.23-2.84-6.12v-6.81c0-2.4-.77-4.17-2.18-5s-3.33-.6-5.41.6l-5.9,3.41-.66-1.13,5.9-3.41c2.51-1.44,4.89-1.66,6.72-.6s2.84,3.23,2.84,6.12v6.81c0,2.4.78,4.18,2.19,5s3.33.6,5.41-.6l166.32-96.46.66,1.13L648.08,407.44A8.45,8.45,0,0,1,643.91,408.7Z" transform="translate(-4.66 -145.85)"/><path class="cls-12" d="M654.9,415a5,5,0,0,1-2.56-.66c-1.83-1.06-2.84-3.23-2.84-6.12v-6.81c0-2.4-.78-4.18-2.18-5s-3.34-.6-5.42.6l-5.9,3.41-.65-1.13,5.9-3.41c2.5-1.44,4.89-1.66,6.72-.6s2.84,3.23,2.84,6.12v6.81c0,2.4.78,4.18,2.18,5s3.34.6,5.42-.6l166.31-96.46.66,1.13L659.06,413.76A8.42,8.42,0,0,1,654.9,415Z" transform="translate(-4.66 -145.85)"/><path class="cls-12" d="M665.88,421.34a5.09,5.09,0,0,1-2.56-.66c-1.83-1.06-2.84-3.23-2.84-6.12v-6.81c0-2.4-.77-4.18-2.18-5s-3.33-.59-5.41.6l-5.9,3.41-.66-1.13,5.9-3.41c2.51-1.45,4.89-1.66,6.72-.6s2.84,3.23,2.84,6.12v6.81c0,2.4.78,4.17,2.19,5s3.33.6,5.41-.6l166.32-96.46.66,1.13L670.05,420.08A8.45,8.45,0,0,1,665.88,421.34Z" transform="translate(-4.66 -145.85)"/><path class="cls-12" d="M676.87,427.66a5.06,5.06,0,0,1-2.56-.66c-1.83-1.06-2.84-3.23-2.84-6.12v-6.81c0-2.4-.78-4.18-2.19-5s-3.33-.6-5.41.6l-5.9,3.41-.65-1.14,5.9-3.4c2.5-1.45,4.89-1.66,6.72-.6s2.84,3.23,2.84,6.12v6.81c0,2.4.77,4.17,2.18,5s3.34.6,5.42-.6l166.31-96.46.66,1.13L681,426.4A8.42,8.42,0,0,1,676.87,427.66Z" transform="translate(-4.66 -145.85)"/><path class="cls-12" d="M687.85,434a5.09,5.09,0,0,1-2.56-.66c-1.83-1.06-2.84-3.23-2.84-6.12v-6.81c0-2.4-.77-4.18-2.18-5s-3.34-.6-5.41.6l-5.9,3.41-.66-1.14,5.9-3.4c2.5-1.45,4.89-1.66,6.72-.6s2.84,3.23,2.84,6.12v6.81c0,2.4.78,4.17,2.19,5s3.33.6,5.41-.6l166.32-96.45.66,1.13L692,432.72A8.45,8.45,0,0,1,687.85,434Z" transform="translate(-4.66 -145.85)"/><path class="cls-12" d="M698.84,440.3a5.06,5.06,0,0,1-2.56-.66c-1.83-1.06-2.84-3.23-2.84-6.12V426.7c0-2.4-.78-4.17-2.19-5s-3.33-.6-5.41.6l-5.9,3.4-.65-1.13,5.9-3.4c2.5-1.45,4.89-1.66,6.72-.6s2.84,3.23,2.84,6.11v6.82c0,2.4.77,4.17,2.18,5s3.33.6,5.42-.6l166.31-96.45.66,1.13L703,439A8.34,8.34,0,0,1,698.84,440.3Z" transform="translate(-4.66 -145.85)"/><polygon class="cls-13" points="680.07 281.76 680.07 306.83 463.06 432.13 246.03 306.83 246.03 281.75 680.07 281.76"/><polygon class="cls-14" points="463.06 407.05 246.03 281.75 463.05 156.46 680.07 281.76 463.06 407.05"/><polygon class="cls-15" points="463.06 404.12 248.57 280.29 246.03 281.75 463.06 407.05 680.07 281.76 677.54 280.29 463.06 404.12"/><polygon class="cls-16" points="463.05 378.15 296.13 281.78 463.05 185.41 629.97 281.78 463.05 378.15"/><polygon class="cls-17" points="463.05 378.16 296.13 281.78 463.05 185.41 629.97 281.79 463.05 378.16"/><polygon class="cls-18" points="463.05 161.11 629.97 257.48 629.97 281.78 463.05 185.41 463.05 161.11"/><polygon class="cls-19" points="463.05 185.41 296.13 281.78 296.13 257.48 463.05 161.11 463.05 185.41"/><polygon class="cls-4" points="463.05 353.85 296.13 257.48 463.05 161.11 629.97 257.48 463.05 353.85"/><polygon class="cls-20" points="463.05 325.47 345.3 257.48 463.05 189.5 580.81 257.48 463.05 325.47"/><polygon class="cls-21" points="463.05 295.99 396.35 257.48 463.05 218.97 529.75 257.48 463.05 295.99"/><polygon class="cls-21" points="463.05 222.52 526.68 259.25 529.75 257.48 463.05 218.97 396.35 257.48 399.42 259.25 463.05 222.52"/><polygon class="cls-22" points="463.05 353.85 463.05 378.15 629.97 281.78 629.97 257.48 463.05 353.85"/><polygon class="cls-23" points="296.13 257.48 296.13 281.78 463.05 378.15 463.05 353.85 296.13 257.48"/><polygon class="cls-24" points="463.05 351.2 298.43 256.15 296.13 257.48 463.05 353.85 629.97 257.48 627.68 256.16 463.05 351.2"/><path class="cls-12" d="M521.88,607.64l-28.24-16.31c-4.92-2.83-8.91-9.75-8.91-15.42V569.1c0-5.26-3.7-11.67-8.25-14.3l-5.9-3.4.65-1.13,5.9,3.4c4.91,2.84,8.91,9.76,8.91,15.43v6.81c0,5.25,3.7,11.66,8.25,14.29l28.24,16.31Z" transform="translate(-4.66 -145.85)"/><path class="cls-12" d="M532.86,601.31,504.62,585c-4.91-2.83-8.91-9.75-8.91-15.42v-6.81c0-5.26-3.7-11.67-8.25-14.3l-5.9-3.41.65-1.13,5.9,3.41c4.92,2.83,8.91,9.75,8.91,15.43v6.81c0,5.25,3.7,11.66,8.25,14.29l28.24,16.31Z" transform="translate(-4.66 -145.85)"/><path class="cls-12" d="M543.85,595l-28.24-16.31c-4.92-2.83-8.91-9.75-8.91-15.42v-6.81c0-5.26-3.7-11.67-8.26-14.3l-5.89-3.4.65-1.13,5.9,3.4c4.91,2.84,8.91,9.76,8.91,15.43v6.81c0,5.25,3.7,11.66,8.25,14.29l28.24,16.31Z" transform="translate(-4.66 -145.85)"/><path class="cls-12" d="M554.83,588.65l-28.24-16.31c-4.91-2.83-8.91-9.75-8.91-15.42V550.1c0-5.25-3.7-11.66-8.25-14.29l-5.9-3.4.65-1.14,5.9,3.41c4.92,2.84,8.91,9.76,8.91,15.42v6.82c0,5.25,3.7,11.67,8.25,14.29l28.24,16.31Z" transform="translate(-4.66 -145.85)"/><path class="cls-12" d="M565.82,582.32,537.57,566c-4.91-2.83-8.9-9.75-8.9-15.42v-6.81c0-5.26-3.71-11.67-8.26-14.3l-5.89-3.4.65-1.13,5.9,3.4c4.91,2.83,8.91,9.75,8.91,15.43v6.81c0,5.25,3.7,11.66,8.25,14.29l28.24,16.31Z" transform="translate(-4.66 -145.85)"/><path class="cls-12" d="M576.8,576l-28.24-16.31c-4.91-2.83-8.91-9.75-8.91-15.42v-6.81c0-5.26-3.7-11.67-8.25-14.3l-5.9-3.4.65-1.14,5.9,3.41c4.92,2.84,8.91,9.76,8.91,15.43v6.81c0,5.25,3.7,11.66,8.25,14.29l28.24,16.31Z" transform="translate(-4.66 -145.85)"/><path class="cls-12" d="M587.79,569.66l-28.25-16.31c-4.91-2.83-8.9-9.75-8.9-15.42v-6.81c0-5.26-3.71-11.67-8.26-14.3l-5.89-3.41.65-1.13,5.9,3.41c4.91,2.83,8.91,9.75,8.91,15.43v6.81c0,5.25,3.7,11.66,8.25,14.29l28.24,16.31Z" transform="translate(-4.66 -145.85)"/><path class="cls-12" d="M598.77,563.33,570.53,547c-4.91-2.83-8.91-9.75-8.91-15.42v-6.81c0-5.26-3.7-11.67-8.25-14.3l-5.9-3.4.65-1.13,5.9,3.4c4.92,2.84,8.91,9.76,8.91,15.43v6.81c0,5.25,3.7,11.66,8.25,14.29l28.24,16.31Z" transform="translate(-4.66 -145.85)"/><path class="cls-12" d="M609.76,557l-28.25-16.31c-4.91-2.83-8.91-9.75-8.91-15.42v-6.81c0-5.26-3.7-11.67-8.25-14.3l-5.9-3.4.66-1.14L565,503c4.91,2.83,8.91,9.76,8.91,15.43v6.81c0,5.25,3.7,11.67,8.25,14.29l28.24,16.31Z" transform="translate(-4.66 -145.85)"/><path class="cls-12" d="M620.74,550.67,592.5,534.36c-4.91-2.83-8.91-9.75-8.91-15.42v-6.81c0-5.26-3.7-11.67-8.25-14.3l-5.9-3.4.65-1.13,5.9,3.4c4.92,2.83,8.91,9.75,8.91,15.43v6.81c0,5.25,3.7,11.66,8.25,14.29l28.24,16.31Z" transform="translate(-4.66 -145.85)"/><path class="cls-12" d="M631.72,544.34,603.48,528c-4.91-2.83-8.91-9.75-8.91-15.42V505.8c0-5.26-3.7-11.67-8.25-14.3l-5.9-3.4.66-1.14,5.9,3.41c4.91,2.83,8.9,9.76,8.9,15.43v6.81c0,5.25,3.71,11.66,8.26,14.29l28.24,16.31Z" transform="translate(-4.66 -145.85)"/><path class="cls-12" d="M642.71,538,614.47,521.7c-4.91-2.83-8.91-9.75-8.91-15.42v-6.81c0-5.26-3.7-11.67-8.25-14.3l-5.9-3.41.65-1.13L598,484c4.91,2.83,8.91,9.75,8.91,15.43v6.81c0,5.25,3.7,11.66,8.25,14.29l28.24,16.31Z" transform="translate(-4.66 -145.85)"/><path class="cls-12" d="M653.69,531.68l-28.24-16.31c-4.91-2.83-8.91-9.75-8.91-15.42v-6.81c0-5.26-3.7-11.67-8.25-14.3l-5.9-3.4.66-1.13,5.9,3.4c4.91,2.84,8.9,9.76,8.9,15.43V500c0,5.25,3.71,11.66,8.26,14.29l28.24,16.31Z" transform="translate(-4.66 -145.85)"/><path class="cls-12" d="M664.68,525.35,636.44,509c-4.91-2.83-8.91-9.75-8.91-15.42v-6.81c0-5.26-3.7-11.67-8.25-14.3l-5.9-3.41L614,468l5.9,3.41c4.91,2.83,8.91,9.75,8.91,15.43v6.81c0,5.25,3.7,11.67,8.25,14.29l28.24,16.31Z" transform="translate(-4.66 -145.85)"/><path class="cls-12" d="M675.66,519l-28.24-16.31c-4.91-2.83-8.91-9.75-8.91-15.42v-6.81c0-5.26-3.7-11.67-8.25-14.3l-5.9-3.4.66-1.13,5.9,3.4c4.91,2.84,8.9,9.76,8.9,15.43v6.81c0,5.25,3.71,11.66,8.26,14.29l28.24,16.31Z" transform="translate(-4.66 -145.85)"/><path class="cls-12" d="M686.65,512.69l-28.24-16.31c-4.91-2.83-8.91-9.75-8.91-15.42v-6.82c0-5.25-3.7-11.66-8.25-14.29l-5.9-3.4.65-1.14,5.9,3.41c4.91,2.84,8.91,9.76,8.91,15.42V481c0,5.25,3.7,11.67,8.25,14.29l28.24,16.31Z" transform="translate(-4.66 -145.85)"/><path class="cls-12" d="M697.63,506.36l-28.24-16.31c-4.91-2.83-8.91-9.75-8.91-15.42v-6.81c0-5.26-3.7-11.67-8.25-14.3l-5.9-3.4L647,449l5.9,3.4c4.91,2.83,8.9,9.75,8.9,15.43v6.81c0,5.25,3.7,11.66,8.25,14.29l28.25,16.31Z" transform="translate(-4.66 -145.85)"/><path class="cls-12" d="M708.62,500l-28.24-16.31c-4.91-2.83-8.91-9.75-8.91-15.42v-6.81c0-5.26-3.7-11.67-8.25-14.3l-5.9-3.4.65-1.13,5.9,3.4c4.91,2.83,8.91,9.76,8.91,15.43v6.81c0,5.25,3.7,11.66,8.25,14.29l28.24,16.31Z" transform="translate(-4.66 -145.85)"/><path class="cls-12" d="M719.6,493.7l-28.24-16.31c-4.91-2.83-8.91-9.75-8.91-15.42v-6.81c0-5.26-3.7-11.67-8.25-14.3l-5.9-3.41.66-1.13,5.9,3.41c4.91,2.83,8.9,9.75,8.9,15.43V462c0,5.25,3.7,11.66,8.25,14.29l28.25,16.31Z" transform="translate(-4.66 -145.85)"/><path class="cls-12" d="M730.59,487.37l-28.24-16.31c-4.91-2.83-8.91-9.75-8.91-15.42v-6.81c0-5.26-3.7-11.67-8.25-14.3l-5.9-3.4.65-1.13,5.9,3.4c4.91,2.83,8.91,9.76,8.91,15.43v6.81c0,5.25,3.7,11.66,8.25,14.29l28.24,16.31Z" transform="translate(-4.66 -145.85)"/><path class="cls-12" d="M286.89,680.8l-.65-1.14L440.37,590.2c4.55-2.63,8.25-9,8.25-14.29V569.1c0-5.67,4-12.59,8.91-15.43l5.9-3.4.65,1.13-5.9,3.4c-4.55,2.63-8.25,9-8.25,14.3v6.81c0,5.67-4,12.59-8.91,15.42Z" transform="translate(-4.66 -145.85)"/><path class="cls-12" d="M275.91,674.47l-.66-1.13,154.13-89.47c4.56-2.63,8.26-9,8.26-14.29v-6.81c0-5.68,4-12.6,8.9-15.43l5.9-3.41.66,1.13-5.9,3.41c-4.55,2.63-8.25,9-8.25,14.3v6.81c0,5.67-4,12.59-8.91,15.42Z" transform="translate(-4.66 -145.85)"/><path class="cls-12" d="M264.93,668.14l-.66-1.13L418.4,577.54c4.55-2.63,8.25-9,8.25-14.29v-6.81c0-5.67,4-12.6,8.91-15.43l5.9-3.4.65,1.13-5.9,3.4c-4.55,2.63-8.25,9-8.25,14.3v6.81c0,5.67-4,12.59-8.91,15.42Z" transform="translate(-4.66 -145.85)"/><path class="cls-12" d="M253.94,661.81l-.66-1.13,154.13-89.47c4.56-2.62,8.26-9,8.26-14.29V550.1c0-5.66,4-12.58,8.91-15.42l5.89-3.41.66,1.14-5.9,3.4c-4.55,2.63-8.25,9-8.25,14.29v6.82c0,5.67-4,12.59-8.91,15.42Z" transform="translate(-4.66 -145.85)"/><path class="cls-12" d="M243,655.48l-.66-1.13,154.13-89.47c4.55-2.63,8.25-9,8.25-14.29v-6.81c0-5.68,4-12.6,8.91-15.43l5.9-3.4.65,1.13-5.9,3.4c-4.55,2.63-8.25,9-8.25,14.3v6.81c0,5.67-4,12.59-8.91,15.42Z" transform="translate(-4.66 -145.85)"/><path class="cls-12" d="M232,649.15l-.66-1.13,154.13-89.47c4.56-2.63,8.26-9,8.26-14.29v-6.81c0-5.67,4-12.59,8.91-15.43l5.89-3.41.66,1.14-5.9,3.4c-4.55,2.63-8.25,9-8.25,14.3v6.81c0,5.67-4,12.59-8.91,15.42Z" transform="translate(-4.66 -145.85)"/><path class="cls-12" d="M221,642.82l-.66-1.13,154.13-89.47c4.55-2.63,8.25-9,8.25-14.29v-6.81c0-5.68,4-12.6,8.91-15.43l5.9-3.41.65,1.13-5.9,3.41c-4.55,2.63-8.24,9-8.24,14.3v6.81c0,5.67-4,12.59-8.92,15.42Z" transform="translate(-4.66 -145.85)"/><path class="cls-12" d="M210,636.49l-.66-1.14,154.13-89.46c4.56-2.63,8.26-9,8.26-14.29v-6.81c0-5.67,4-12.59,8.91-15.43l5.89-3.4.66,1.13-5.9,3.4c-4.55,2.63-8.25,9-8.25,14.3v6.81c0,5.67-4,12.59-8.91,15.42Z" transform="translate(-4.66 -145.85)"/><path class="cls-12" d="M199,630.16l-.66-1.13,154.13-89.47c4.55-2.62,8.25-9,8.25-14.29v-6.81c0-5.67,4-12.6,8.91-15.43l5.9-3.41.65,1.14-5.9,3.4c-4.55,2.63-8.24,9-8.24,14.3v6.81c0,5.67-4,12.59-8.92,15.42Z" transform="translate(-4.66 -145.85)"/><path class="cls-12" d="M188,623.83l-.66-1.13,154.14-89.47c4.55-2.63,8.25-9,8.25-14.29v-6.81c0-5.68,4-12.6,8.91-15.43l5.9-3.4.65,1.13-5.9,3.4c-4.55,2.63-8.25,9-8.25,14.3v6.81c0,5.67-4,12.59-8.91,15.42Z" transform="translate(-4.66 -145.85)"/><path class="cls-12" d="M177.05,617.5l-.66-1.13L330.52,526.9c4.56-2.63,8.25-9,8.25-14.29V505.8c0-5.67,4-12.59,8.91-15.43l5.9-3.41.65,1.14-5.9,3.4c-4.55,2.63-8.24,9-8.24,14.3v6.81c0,5.67-4,12.59-8.91,15.42Z" transform="translate(-4.66 -145.85)"/><path class="cls-12" d="M166.06,611.17l-.65-1.13,154.13-89.47c4.55-2.63,8.25-9,8.25-14.29v-6.81c0-5.68,4-12.6,8.91-15.43l5.9-3.41.65,1.13-5.9,3.41c-4.55,2.63-8.25,9-8.25,14.3v6.81c0,5.67-4,12.59-8.91,15.42Z" transform="translate(-4.66 -145.85)"/><path class="cls-12" d="M155.08,604.84l-.66-1.13,154.13-89.47c4.56-2.63,8.25-9,8.25-14.29v-6.81c0-5.67,4-12.59,8.92-15.43l5.89-3.4.66,1.13-5.9,3.4c-4.55,2.63-8.25,9-8.25,14.3V500c0,5.67-4,12.59-8.91,15.42Z" transform="translate(-4.66 -145.85)"/><path class="cls-12" d="M144.09,598.51l-.65-1.13,154.13-89.47c4.55-2.62,8.25-9,8.25-14.29v-6.81c0-5.68,4-12.6,8.91-15.43l5.9-3.41.65,1.13-5.9,3.41c-4.55,2.63-8.25,9-8.25,14.3v6.81c0,5.67-4,12.59-8.91,15.42Z" transform="translate(-4.66 -145.85)"/><path class="cls-12" d="M133.11,592.18l-.66-1.14,154.13-89.46c4.56-2.63,8.25-9,8.25-14.29v-6.81c0-5.67,4-12.59,8.92-15.43l5.89-3.4.66,1.13-5.9,3.4c-4.55,2.63-8.25,9-8.25,14.3v6.81c0,5.67-4,12.59-8.91,15.42Z" transform="translate(-4.66 -145.85)"/><path class="cls-12" d="M122.13,585.85l-.66-1.13L275.6,495.25c4.55-2.62,8.25-9,8.25-14.29v-6.82c0-5.66,4-12.58,8.91-15.42l5.9-3.41.65,1.14-5.9,3.4c-4.55,2.63-8.25,9-8.25,14.29V481c0,5.67-4,12.59-8.91,15.42Z" transform="translate(-4.66 -145.85)"/><path class="cls-12" d="M111.14,579.52l-.66-1.13,154.13-89.47c4.56-2.63,8.25-9,8.25-14.29v-6.81c0-5.68,4-12.6,8.92-15.43l5.89-3.4.66,1.13-5.9,3.4c-4.55,2.63-8.25,9-8.25,14.3v6.81c0,5.67-4,12.59-8.91,15.42Z" transform="translate(-4.66 -145.85)"/><path class="cls-12" d="M100.16,573.19l-.66-1.13,154.13-89.47c4.55-2.63,8.25-9,8.25-14.29v-6.81c0-5.67,4-12.59,8.91-15.43l5.9-3.4.65,1.13-5.9,3.4c-4.55,2.63-8.25,9-8.25,14.3v6.81c0,5.67-4,12.59-8.91,15.42Z" transform="translate(-4.66 -145.85)"/><path class="cls-12" d="M89.17,566.86l-.66-1.13,154.13-89.47c4.56-2.63,8.25-9,8.25-14.29v-6.81c0-5.68,4-12.6,8.92-15.43l5.89-3.41.66,1.13-5.9,3.41c-4.55,2.63-8.25,9-8.25,14.3V462c0,5.67-4,12.59-8.91,15.42Z" transform="translate(-4.66 -145.85)"/><path class="cls-12" d="M78.19,560.53l-.66-1.14,154.13-89.46c4.55-2.63,8.25-9,8.25-14.29v-6.81c0-5.67,4-12.59,8.91-15.43l5.9-3.4.65,1.13-5.9,3.4c-4.55,2.63-8.25,9-8.25,14.3v6.81c0,5.67-4,12.59-8.9,15.42Z" transform="translate(-4.66 -145.85)"/><g class="cls-25"><polygon class="cls-4" points="583.45 669.9 550.19 650.7 550.19 689.1 583.45 708.3 616.71 689.1 616.71 650.7 583.45 669.9"/><polygon class="cls-4" points="583.45 708.3 550.19 689.1 550.19 650.7 583.45 669.9 583.45 708.3"/><polygon class="cls-26" points="616.71 689.1 583.45 708.3 583.45 669.9 616.71 650.7 616.71 689.1"/><polygon class="cls-4" points="583.45 669.9 550.19 650.7 583.45 631.49 616.71 650.7 583.45 669.9"/><polygon class="cls-27" points="583.45 669.9 550.19 650.7 550.19 652.36 583.45 671.57 616.71 652.36 616.71 650.7 583.45 669.9"/></g><polygon class="cls-28" points="583.45 646.62 550.19 627.42 583.45 608.21 616.71 627.42 583.45 646.62"/><polygon class="cls-4" points="583.45 579.13 550.19 559.92 550.19 598.33 583.45 617.53 616.71 598.33 616.71 559.92 583.45 579.13"/><polygon class="cls-4" points="583.45 617.53 550.19 598.33 550.19 559.92 583.45 579.13 583.45 617.53"/><polygon class="cls-26" points="616.71 598.33 583.45 617.53 583.45 579.13 616.71 559.92 616.71 598.33"/><polygon class="cls-4" points="583.45 579.13 550.19 559.92 583.45 540.72 616.71 559.92 583.45 579.13"/><polygon class="cls-29" points="583.45 579.13 550.19 559.92 550.19 561.59 583.45 580.79 616.71 561.59 616.71 559.92 583.45 579.13"/><g class="cls-25"><polygon class="cls-4" points="95.16 667 61.9 647.79 61.9 686.2 95.16 705.4 128.42 686.2 128.42 647.79 95.16 667"/><polygon class="cls-4" points="95.16 705.4 61.9 686.2 61.9 647.79 95.16 667 95.16 705.4"/><polygon class="cls-26" points="128.42 686.2 95.16 705.4 95.16 667 128.42 647.79 128.42 686.2"/><polygon class="cls-4" points="95.16 667 61.9 647.79 95.16 628.59 128.42 647.79 95.16 667"/><polygon class="cls-30" points="95.16 667 61.9 647.79 61.9 649.46 95.16 668.66 128.42 649.46 128.42 647.79 95.16 667"/></g><polygon class="cls-28" points="95.16 643.72 61.9 624.51 95.16 605.31 128.42 624.51 95.16 643.72"/><polygon class="cls-4" points="95.16 576.22 61.9 557.02 61.9 595.42 95.16 614.63 128.42 595.42 128.42 557.02 95.16 576.22"/><polygon class="cls-4" points="95.16 614.63 61.9 595.42 61.9 557.02 95.16 576.22 95.16 614.63"/><polygon class="cls-26" points="128.42 595.42 95.16 614.63 95.16 576.22 128.42 557.02 128.42 595.42"/><polygon class="cls-4" points="95.16 576.22 61.9 557.02 95.16 537.82 128.42 557.02 95.16 576.22"/><polygon class="cls-31" points="95.16 576.22 61.9 557.02 61.9 558.68 95.16 577.89 128.42 558.68 128.42 557.02 95.16 576.22"/><g class="cls-25"><polygon class="cls-4" points="33.26 301.67 0 282.47 0 320.88 33.26 340.08 66.52 320.88 66.52 282.47 33.26 301.67"/><polygon class="cls-4" points="33.26 340.08 0 320.88 0 282.47 33.26 301.67 33.26 340.08"/><polygon class="cls-26" points="66.52 320.88 33.26 340.08 33.26 301.67 66.52 282.47 66.52 320.88"/><polygon class="cls-4" points="33.26 301.67 0 282.47 33.26 263.27 66.52 282.47 33.26 301.67"/><polygon class="cls-32" points="33.26 301.67 0 282.47 0 284.14 33.26 303.34 66.52 284.14 66.52 282.47 33.26 301.67"/></g><polygon class="cls-28" points="33.26 278.39 0 259.19 33.26 239.99 66.52 259.19 33.26 278.39"/><polygon class="cls-4" points="33.26 210.9 0 191.7 0 230.1 33.26 249.31 66.52 230.1 66.52 191.7 33.26 210.9"/><polygon class="cls-4" points="33.26 249.31 0 230.1 0 191.7 33.26 210.9 33.26 249.31"/><polygon class="cls-26" points="66.52 230.1 33.26 249.31 33.26 210.9 66.52 191.7 66.52 230.1"/><polygon class="cls-4" points="33.26 210.9 0 191.7 33.26 172.49 66.52 191.7 33.26 210.9"/><polygon class="cls-33" points="33.26 210.9 0 191.7 0 193.36 33.26 212.56 66.52 193.36 66.52 191.7 33.26 210.9"/><path class="cls-34" d="M508.81,534.3,279.75,402.05c-5.92-3.42-5.18-9.39,1.66-13.33L415,311.57c6.84-3.95,17.18-4.37,23.09-1L667.18,442.86c5.92,3.41,5.18,9.38-1.66,13.33L531.9,533.34C525.06,537.28,514.72,537.71,508.81,534.3Z" transform="translate(-4.66 -145.85)"/><path class="cls-4" d="M728,340l-3.81-.5a13.24,13.24,0,0,0-1.33-.86L428,168.4c-7.62-4.39-20.93-3.84-29.73,1.24L226.22,269a17.89,17.89,0,0,0-5.25,4.4l-2-.59v5.95h0c0,2.78,1.7,5.42,5.13,7.4L519,456.36c7.62,4.4,20.93,3.85,29.72-1.23l172-99.32c4.91-2.84,7.37-6.49,7.26-9.93h0Z" transform="translate(-4.66 -145.85)"/><path class="cls-4" d="M519,450.39,224.09,280.15c-7.62-4.4-6.66-12.09,2.13-17.17l172-99.31c8.8-5.08,22.11-5.63,29.73-1.24L722.84,332.68c7.62,4.4,6.66,12.08-2.13,17.16l-172,99.32C539.89,454.24,526.58,454.79,519,450.39Z" transform="translate(-4.66 -145.85)"/><path class="cls-35" d="M519,450.39,224.09,280.15c-7.62-4.4-6.66-12.09,2.13-17.17l172-99.31c8.8-5.08,22.11-5.63,29.73-1.24L722.84,332.68c7.62,4.4,6.66,12.08-2.13,17.16l-172,99.32C539.89,454.24,526.58,454.79,519,450.39Z" transform="translate(-4.66 -145.85)"/><polygon class="cls-26" points="561.88 293 239.41 106.83 273.64 87.06 596.11 273.24 561.88 293"/><polygon class="cls-36" points="556.8 210.92 459.71 154.87 483.41 141.19 580.49 197.24 556.8 210.92"/><path class="cls-4" d="M179.71,271.84c32.29-8.08,65.89-40.57,75-72.57,4.58-16,2.16-28.9-5.46-36.74h0l-8-8.17.44,2.84c-7.45-3.5-17.29-4.16-28.89-1.26-32.29,8.08-65.88,40.57-75,72.57-3.14,11-3,20.51-.13,27.92l-2.62.43,8.12,8.3.1.1.33.34v0C151.23,273.12,163.83,275.81,179.71,271.84Z" transform="translate(-4.66 -145.85)"/><ellipse class="cls-4" cx="188.2" cy="205.63" rx="73.81" ry="42.62" transform="translate(-94.7 42.81) rotate(-44.04)"/><path class="cls-37" d="M161.23,259.27c-8.5,0-15.57-2.62-20.51-7.73-7.19-7.44-9-19.22-5-33.18,8.15-28.5,38.16-57.53,66.91-64.72,14.09-3.53,25.81-1.37,33,6.07s9,19.22,5,33.18c-8.15,28.5-38.17,57.53-66.92,64.72A51.46,51.46,0,0,1,161.23,259.27Zm53.92-105.79a50.42,50.42,0,0,0-12.12,1.6c-28.28,7.08-57.82,35.65-65.84,63.69-3.84,13.42-2.2,24.69,4.6,31.73s18,9.05,31.57,5.67c28.29-7.08,57.83-35.65,65.84-63.69,3.84-13.42,2.21-24.69-4.6-31.73C230,155.94,223.25,153.48,215.15,153.48Z" transform="translate(-4.66 -145.85)"/><g class="cls-25"><path class="cls-4" d="M323.4,597.85c0-33.28-23.37-73.75-52.2-90.4-14.44-8.33-27.51-9.11-37-3.62h0l-9.86,5.77,2.86.27c-5.2,6.37-8.23,15.75-8.23,27.72,0,33.28,23.37,73.75,52.19,90.4,9.91,5.72,19.17,7.88,27.06,6.9l-.22,2.64,10-5.86.12-.07.4-.24h0C317.74,625.79,323.4,614.22,323.4,597.85Z" transform="translate(-4.66 -145.85)"/><path class="cls-4" d="M313.42,603.69c0,33.29-23.37,46.78-52.2,30.13S209,576.71,209,543.42s23.37-46.77,52.19-30.13S313.42,570.41,313.42,603.69Z" transform="translate(-4.66 -145.85)"/></g><path class="cls-38" d="M264.6,652.17c-36,0-72-7.91-99.43-23.74-26.65-15.39-41.33-35.88-41.33-57.7s14.68-42.32,41.33-57.71c54.82-31.65,144-31.65,198.85,0,26.66,15.39,41.34,35.88,41.34,57.7S390.68,613,364,628.43h0C336.61,644.26,300.61,652.17,264.6,652.17Zm0-161.86c-35.82,0-71.63,7.87-98.9,23.61-26.32,15.2-40.82,35.37-40.82,56.81s14.5,41.61,40.82,56.8C220.24,659,309,659,363.5,627.53h0c26.33-15.19,40.82-35.36,40.82-56.8s-14.49-41.61-40.82-56.81C336.23,498.18,300.41,490.31,264.59,490.31Z" transform="translate(-4.66 -145.85)"/><path class="cls-39" d="M264.6,674c-45.7,0-91.39-10-126.17-30.13C104.63,624.36,86,598.38,86,570.73s18.62-53.63,52.41-73.15c69.57-40.16,182.77-40.16,252.35,0,33.8,19.51,52.41,45.49,52.41,73.14s-18.61,53.63-52.41,73.15C356,664,310.29,674,264.6,674Zm0-205.52c-45.51,0-91,10-125.65,30-33.46,19.32-51.89,45-51.89,72.25s18.43,52.92,51.89,72.24c69.29,40,182,40,251.31,0l.26.45-.26-.45c33.47-19.32,51.9-45,51.9-72.25s-18.44-52.93-51.9-72.25C355.6,478.48,310.1,468.48,264.59,468.48Z" transform="translate(-4.66 -145.85)"/><path class="cls-4" d="M264.6,635c-28.38,0-56.75-6.24-78.36-18.71-21-12.15-32.61-28.32-32.61-45.54s11.58-33.4,32.61-45.54c43.2-24.94,113.51-24.94,156.71,0,21,12.14,32.61,28.32,32.61,45.54S364,604.13,343,616.27C321.35,628.74,293,635,264.6,635Zm0-127.48c-28.2,0-56.38,6.2-77.84,18.59-20.7,11.94-32.09,27.8-32.09,44.64s11.39,32.69,32.09,44.64c42.92,24.78,112.76,24.78,155.68,0,20.69-12,32.09-27.8,32.09-44.64s-11.4-32.69-32.1-44.64C321,513.7,292.79,507.5,264.6,507.5Z" transform="translate(-4.66 -145.85)"/><g class="cls-40"><path class="cls-4" d="M323.4,597.85c0-33.28-23.37-73.75-52.2-90.4-14.44-8.33-27.51-9.11-37-3.62h0l-9.86,5.77,2.86.27c-5.2,6.37-8.23,15.75-8.23,27.72,0,33.28,23.37,73.75,52.19,90.4,9.91,5.72,19.17,7.88,27.06,6.9l-.22,2.64,10-5.86.12-.07.4-.24h0C317.74,625.79,323.4,614.22,323.4,597.85Z" transform="translate(-4.66 -145.85)"/><path class="cls-4" d="M313.42,603.69c0,33.29-23.37,46.78-52.2,30.13S209,576.71,209,543.42s23.37-46.77,52.19-30.13S313.42,570.41,313.42,603.69Z" transform="translate(-4.66 -145.85)"/><path class="cls-41" d="M282.22,635c-6.57,0-13.84-2.2-21.37-6.54-26.12-15.09-47.38-51.9-47.38-82.06,0-14.78,5-25.81,14.14-31.08s21.19-4.09,34,3.3C287.72,533.72,309,570.53,309,600.69c0,14.78-5,25.82-14.14,31.08A24.86,24.86,0,0,1,282.22,635Zm-42-121.43a23.37,23.37,0,0,0-11.87,3c-8.64,5-13.39,15.56-13.39,29.78,0,29.69,20.92,65.92,46.63,80.76,12.31,7.11,23.85,8.29,32.49,3.3s13.39-15.56,13.39-29.79c0-29.68-20.92-65.92-46.63-80.76C253.56,515.72,246.54,513.59,240.23,513.59Z" transform="translate(-4.66 -145.85)"/></g><g class="cls-25"><path class="cls-4" d="M758,707.83c0-33.28,23.37-73.76,52.2-90.4,14.44-8.34,27.51-9.11,37-3.62h0l9.86,5.78-2.86.27c5.2,6.37,8.23,15.75,8.23,27.71,0,33.29-23.37,73.76-52.19,90.4-9.91,5.72-19.17,7.88-27.06,6.91l.22,2.64-10-5.86-.12-.07-.41-.24h0C763.61,735.77,758,724.2,758,707.83Z" transform="translate(-4.66 -145.85)"/><ellipse class="cls-4" cx="820.12" cy="683.53" rx="73.81" ry="42.62" transform="translate(-186.57 906.14) rotate(-60)"/></g><path class="cls-38" d="M816.75,762.15c-36,0-72-7.92-99.43-23.74C690.67,723,676,702.53,676,680.71S690.67,638.4,717.33,623c54.83-31.65,144-31.65,198.85,0,26.65,15.39,41.33,35.88,41.33,57.7S942.83,723,916.18,738.41C888.76,754.23,852.76,762.15,816.75,762.15Zm0-161.86c-35.82,0-71.63,7.87-98.9,23.61C691.52,639.1,677,659.27,677,680.71s14.49,41.61,40.81,56.8c54.54,31.49,143.28,31.5,197.82,0,26.32-15.2,40.82-35.37,40.82-56.81s-14.5-41.61-40.82-56.8C888.4,608.16,852.57,600.29,816.75,600.29Z" transform="translate(-4.66 -145.85)"/><path class="cls-39" d="M816.75,784c-45.7,0-91.38-10.05-126.17-30.13-33.8-19.51-52.41-45.49-52.41-73.14s18.61-53.63,52.41-73.15c69.58-40.16,182.78-40.16,252.35,0,33.79,19.51,52.41,45.49,52.41,73.14s-18.62,53.63-52.42,73.15C908.13,773.93,862.44,784,816.75,784Zm0-205.52c-45.51,0-91,10-125.66,30-33.47,19.32-51.9,45-51.9,72.25s18.43,52.92,51.9,72.24c69.28,40,182,40,251.3,0,33.47-19.32,51.9-45,51.9-72.25s-18.43-52.92-51.89-72.24C907.77,588.46,862.26,578.46,816.76,578.46Z" transform="translate(-4.66 -145.85)"/><path class="cls-4" d="M816.75,745c-28.38,0-56.75-6.23-78.35-18.7-21-12.15-32.61-28.32-32.61-45.54s11.58-33.4,32.61-45.54c43.2-24.94,113.51-24.94,156.71,0,21,12.14,32.61,28.31,32.61,45.54s-11.58,33.39-32.61,45.54C873.5,738.72,845.13,745,816.75,745Zm0-127.47c-28.19,0-56.37,6.19-77.83,18.59-20.7,11.94-32.1,27.8-32.1,44.64s11.4,32.69,32.09,44.64c42.92,24.78,112.76,24.78,155.68,0,20.7-12,32.09-27.81,32.09-44.64s-11.39-32.7-32.09-44.64C873.13,623.67,844.94,617.48,816.75,617.48Z" transform="translate(-4.66 -145.85)"/><g class="cls-42"><path class="cls-4" d="M758,707.83c0-33.28,23.37-73.76,52.2-90.4,14.44-8.34,27.51-9.11,37-3.62h0l9.86,5.78-2.86.27c5.2,6.37,8.23,15.75,8.23,27.71,0,33.29-23.37,73.76-52.19,90.4-9.91,5.72-19.17,7.88-27.06,6.91l.22,2.64-10-5.86-.12-.07-.41-.24h0C763.61,735.77,758,724.2,758,707.83Z" transform="translate(-4.66 -145.85)"/><ellipse class="cls-4" cx="820.12" cy="683.53" rx="73.81" ry="42.62" transform="translate(-186.57 906.14) rotate(-60)"/><path class="cls-43" d="M799.13,745a24.85,24.85,0,0,1-12.61-3.24c-9.12-5.26-14.15-16.3-14.15-31.08,0-30.16,21.26-67,47.38-82.06,12.79-7.39,24.87-8.56,34-3.29s14.14,16.3,14.14,31.08c0,30.16-21.26,67-47.38,82.06C813,742.8,805.7,745,799.13,745Zm42-121.42c-6.3,0-13.32,2.12-20.61,6.34-25.71,14.84-46.63,51.07-46.63,80.76,0,14.22,4.75,24.8,13.39,29.79s20.18,3.81,32.49-3.3c25.71-14.84,46.63-51.07,46.63-80.76,0-14.22-4.75-24.8-13.39-29.79A23.47,23.47,0,0,0,841.11,623.57Z" transform="translate(-4.66 -145.85)"/></g></g></g></svg>