<?xml version="1.0" encoding="utf-8"?>
<!-- Generator: Adobe Illustrator 25.3.0, SVG Export Plug-In . SVG Version: 6.00 Build 0)  -->
<svg version="1.1" id="Capa_1" xmlns="http://www.w3.org/2000/svg" xmlns:xlink="http://www.w3.org/1999/xlink" x="0px" y="0px"
	 viewBox="0 0 1000 1000" style="enable-background:new 0 0 1000 1000;" xml:space="preserve">
<style type="text/css">
	.st0{opacity:0.15;}
	.st1{fill:#E94667;}
	.st2{fill:#E7334E;}
	.st3{fill:url(#SVGID_1_);}
	.st4{fill:url(#SVGID_2_);}
	.st5{opacity:0.2;}
	.st6{fill:#971C1F;}
	.st7{fill:url(#SVGID_3_);}
	.st8{fill:url(#SVGID_4_);}
	.st9{fill:url(#SVGID_5_);}
	.st10{opacity:0.6;fill:#2C2661;}
	.st11{fill:#6B151B;}
	.st12{opacity:0.7;fill:url(#SVGID_6_);}
	.st13{fill:url(#SVGID_7_);}
	.st14{opacity:0.8;}
</style>
<g>
	<g class="st0">
		<g>
			<path class="st1" d="M170.5,617.7l6.2-0.8c0.7-0.5,1.4-0.9,2.1-1.4l476.3-271.4c12.3-7,33.8-6.1,48,2l277.8,158.3
				c3.7,2.1,6.5,4.5,8.5,7l3.3-0.9v9.5l0,0c0,4.4-2.7,8.6-8.3,11.8L508.1,803.2c-12.3,7-33.8,6.1-48-2L182.2,642.8
				c-7.9-4.5-11.9-10.3-11.7-15.8l0,0V617.7z"/>
			<path class="st2" d="M508.1,793.6l476.3-271.4c12.3-7,10.8-19.3-3.4-27.4L703.1,336.5c-14.2-8.1-35.7-9-48-2L178.8,606
				c-12.3,7-10.8,19.3,3.4,27.4l277.8,158.3C474.3,799.8,495.8,800.6,508.1,793.6z"/>
		</g>
		<g>
			<path class="st2" d="M828.8,551.9l58.8-33.5c5.5-3.1,4.8-8.6-1.5-12.2l0,0c-6.3-3.6-15.9-4-21.3-0.9L806,538.9
				c-5.5,3.1-4.8,8.6,1.5,12.2l0,0C813.8,554.7,823.4,555,828.8,551.9z"/>
			<path class="st2" d="M720.3,613.8l58.8-33.5c5.5-3.1,4.8-8.6-1.5-12.2h0c-6.3-3.6-15.9-4-21.3-0.9l-58.8,33.5
				c-5.5,3.1-4.8,8.6,1.5,12.2l0,0C705.3,616.5,714.9,616.9,720.3,613.8z"/>
			<path class="st2" d="M611.8,675.6l58.8-33.5c5.5-3.1,4.8-8.6-1.5-12.2l0,0c-6.3-3.6-15.9-4-21.3-0.9L589,662.6
				c-5.5,3.1-4.8,8.6,1.5,12.2l0,0C596.8,678.3,606.4,678.7,611.8,675.6z"/>
			<path class="st2" d="M503.3,737.4l58.8-33.5c5.5-3.1,4.8-8.6-1.5-12.2l0,0c-6.3-3.6-15.9-4-21.3-0.9l-58.8,33.5
				c-5.5,3.1-4.8,8.6,1.5,12.2h0C488.3,740.2,497.9,740.6,503.3,737.4z"/>
		</g>
	</g>
</g>
<g class="st0">
	
		<linearGradient id="SVGID_1_" gradientUnits="userSpaceOnUse" x1="3508.5818" y1="1181.4335" x2="3713.0051" y2="813.3398" gradientTransform="matrix(-0.5088 -0.8609 0.8609 -0.5088 1249.8181 4390.8867)">
		<stop  offset="0" style="stop-color:#515DA7"/>
		<stop  offset="3.580305e-02" style="stop-color:#5561A9"/>
		<stop  offset="7.801844e-02" style="stop-color:#626BB0"/>
		<stop  offset="0.1235" style="stop-color:#777CBB"/>
		<stop  offset="0.1712" style="stop-color:#9496CA"/>
		<stop  offset="0.2203" style="stop-color:#BAB9DE"/>
		<stop  offset="0.2237" style="stop-color:#BCBCDF"/>
	</linearGradient>
	<path class="st3" d="M7.1,649.5l0.4,35.6l0,0c0,0.5,0.2,1,0.8,1.3l388.6,219.1c1.3,0.7,3.5,0.6,4.9-0.3l62.8-37.1
		c0.7-0.4,1.1-0.9,1.2-1.4l0,0v0c0,0,0-0.1,0-0.1l-0.4-35.9l-30.5,17.7L76.4,646.1c-1.3-0.7-3.5-0.6-4.9,0.3L50,659.1L7.1,649.5z"/>
	
		<linearGradient id="SVGID_2_" gradientUnits="userSpaceOnUse" x1="3759.74" y1="1182.7886" x2="3623.6409" y2="916.7302" gradientTransform="matrix(-0.5088 -0.8609 0.8609 -0.5088 1249.8181 4390.8867)">
		<stop  offset="0" style="stop-color:#C1BEE0"/>
		<stop  offset="0.276" style="stop-color:#C5C2E3"/>
		<stop  offset="0.6014" style="stop-color:#D1CFE9"/>
		<stop  offset="0.9504" style="stop-color:#E6E5F4"/>
		<stop  offset="1" style="stop-color:#E9E8F6"/>
	</linearGradient>
	<path class="st4" d="M76,610.4l388.6,219.1c1.3,0.7,1.1,2-0.3,2.8l-62.8,37.1c-1.4,0.9-3.6,1-4.9,0.3L8,650.6
		c-1.3-0.7-1.1-2,0.3-2.8l62.8-37.1C72.6,609.8,74.8,609.7,76,610.4z"/>
</g>
<g class="st5">
	<path class="st1" d="M418.2,395.9c-3.6-42.1-37.5-90.7-75.7-108.6c-19.1-9-35.7-8.5-47.1-0.6v0l-11.8,8.4l3.7,0
		c-5.9,8.6-8.7,20.8-7.4,35.9c3.6,42.1,37.5,90.7,75.7,108.6c13.1,6.2,25.1,7.9,34.9,5.8l0,3.4l12-8.5c0,0,0.1-0.1,0.1-0.1l0.5-0.3
		l0,0C414.1,431.8,420,416.6,418.2,395.9z"/>
	<ellipse transform="matrix(0.8203 -0.572 0.572 0.8203 -152.1727 259.6369)" class="st2" cx="337" cy="372" rx="54" ry="93.6"/>
	<path class="st6" d="M366.3,446.2c-7.3,0-15.4-2-23.9-6c-34-15.9-64.3-59.4-67.5-96.8c-1.6-18.3,3.5-32.6,14.3-40.1
		c10.8-7.5,25.9-7.3,42.5,0.5c34,15.9,64.3,59.4,67.5,96.8c1.6,18.3-3.5,32.6-14.3,40.1C379.7,444.3,373.4,446.2,366.3,446.2z
		 M307.7,299.6c-6.6,0-12.6,1.7-17.5,5.2c-10.2,7.1-15,20.7-13.5,38.4c3.2,36.8,33,79.6,66.4,95.3c16,7.5,30.5,7.7,40.7,0.6
		c10.2-7.1,15-20.7,13.5-38.4c-3.2-36.8-33-79.6-66.4-95.3C322.6,301.6,314.8,299.6,307.7,299.6z"/>
</g>
<g>
	<path class="st1" d="M326,250.2c40.9-10.2,83.5-51.4,95.1-92c5.8-20.3,2.7-36.6-6.9-46.6l0,0l-10.1-10.4l0.6,3.6
		c-9.4-4.4-21.9-5.3-36.6-1.6c-40.9,10.2-83.5,51.4-95.1,92c-4,13.9-3.8,26-0.2,35.4l-3.3,0.5l10.3,10.5c0,0,0.1,0.1,0.1,0.1
		l0.4,0.4v0C289.9,251.8,305.9,255.2,326,250.2z"/>
	
		<ellipse transform="matrix(0.7188 -0.6952 0.6952 0.7188 -20.8705 280.8643)" class="st2" cx="336.8" cy="166.2" rx="93.6" ry="54"/>
	<path class="st6" d="M302.6,234.2c-10.8,0-19.7-3.3-26-9.8c-9.1-9.4-11.4-24.4-6.3-42.1c10.3-36.1,48.4-73,84.9-82.1
		c17.9-4.5,32.7-1.7,41.8,7.7c9.1,9.4,11.4,24.4,6.3,42.1c-10.3,36.1-48.4,73-84.9,82.1C312.8,233.6,307.5,234.2,302.6,234.2z
		 M370.9,100.1c-4.8,0-9.9,0.7-15.4,2c-35.9,9-73.3,45.2-83.5,80.8c-4.9,17-2.8,31.3,5.8,40.2c8.6,8.9,22.8,11.5,40,7.2l0,0
		c35.9-9,73.3-45.2,83.5-80.8c4.9-17,2.8-31.3-5.8-40.2C389.7,103.2,381.2,100.1,370.9,100.1z"/>
</g>
<g>
	<g>
		<g>
			
				<linearGradient id="SVGID_3_" gradientUnits="userSpaceOnUse" x1="3538.6919" y1="1198.6791" x2="3743.115" y2="830.5854" gradientTransform="matrix(-0.5088 -0.8609 0.8609 -0.5088 1249.8181 4390.8867)">
				<stop  offset="0" style="stop-color:#515DA7"/>
				<stop  offset="3.580305e-02" style="stop-color:#5561A9"/>
				<stop  offset="7.801844e-02" style="stop-color:#626BB0"/>
				<stop  offset="0.1235" style="stop-color:#777CBB"/>
				<stop  offset="0.1712" style="stop-color:#9496CA"/>
				<stop  offset="0.2203" style="stop-color:#BAB9DE"/>
				<stop  offset="0.2237" style="stop-color:#BCBCDF"/>
			</linearGradient>
			<path class="st7" d="M6.7,614.8l0.4,35.6l0,0c0,0.5,0.2,1,0.8,1.3l388.6,219.1c1.3,0.7,3.5,0.6,4.9-0.3l62.8-37.1
				c0.7-0.4,1.1-0.9,1.2-1.4l0,0v0c0,0,0-0.1,0-0.1l-0.4-35.9l-30.5,17.7L76,611.5c-1.3-0.7-3.5-0.6-4.9,0.3l-21.5,12.7L6.7,614.8z"
				/>
			
				<radialGradient id="SVGID_4_" cx="3412.8196" cy="1118.1305" r="339.6377" gradientTransform="matrix(-0.5088 -0.8609 0.8609 -0.5088 1249.8181 4390.8867)" gradientUnits="userSpaceOnUse">
				<stop  offset="0" style="stop-color:#E7334E"/>
				<stop  offset="2.711940e-02" style="stop-color:#E0314A"/>
				<stop  offset="0.1617" style="stop-color:#C42838"/>
				<stop  offset="0.3097" style="stop-color:#AF232C"/>
				<stop  offset="0.4762" style="stop-color:#A11F24"/>
				<stop  offset="0.6762" style="stop-color:#991D20"/>
				<stop  offset="1" style="stop-color:#971C1F"/>
			</radialGradient>
			<path class="st8" d="M6.7,614.8l0.4,35.6l0,0c0,0.5,0.2,1,0.8,1.3l388.6,219.1c1.3,0.7,3.5,0.6,4.9-0.3l62.8-37.1
				c0.7-0.4,1.1-0.9,1.2-1.4l0,0v0c0,0,0-0.1,0-0.1l-0.4-35.9l-30.5,17.7L76,611.5c-1.3-0.7-3.5-0.6-4.9,0.3l-21.5,12.7L6.7,614.8z"
				/>
			
				<linearGradient id="SVGID_5_" gradientUnits="userSpaceOnUse" x1="3789.8499" y1="1200.0344" x2="3653.7507" y2="933.976" gradientTransform="matrix(-0.5088 -0.8609 0.8609 -0.5088 1249.8181 4390.8867)">
				<stop  offset="0" style="stop-color:#C1BEE0"/>
				<stop  offset="0.276" style="stop-color:#C5C2E3"/>
				<stop  offset="0.6014" style="stop-color:#D1CFE9"/>
				<stop  offset="0.9504" style="stop-color:#E6E5F4"/>
				<stop  offset="1" style="stop-color:#E9E8F6"/>
			</linearGradient>
			<path class="st9" d="M75.6,575.7l388.6,219.1c1.3,0.7,1.1,2-0.3,2.8l-62.8,37.1c-1.4,0.9-3.6,1-4.9,0.3L7.5,615.9
				c-1.3-0.7-1.1-2,0.3-2.8l62.8-37.1C72.1,575.1,74.3,575,75.6,575.7z"/>
			<path class="st2" d="M464.2,794.8l-1.1-0.6l-62,36.7c-1.4,0.9-3.6,1-4.9,0.3L8.6,612.6l-0.8,0.4c-1.4,0.9-1.6,2.1-0.3,2.8
				L396.2,835c1.3,0.7,3.5,0.6,4.9-0.3l62.8-37.1C465.3,796.8,465.5,795.5,464.2,794.8z"/>
			<path class="st10" d="M90,629.1l305.4,169c2.2-12.1,5.6-24.3,10.1-36.4L100.6,589.8C95.7,602.8,92.1,616.1,90,629.1z"/>
			<path class="st11" d="M62.3,596.3l366.5,206.6c0.9,0.5,0.8,1.4-0.2,1.9l-15.8,9.3c-1,0.6-2.5,0.7-3.4,0.2L42.9,607.8
				c-0.9-0.5-0.8-1.4,0.2-1.9l15.8-9.3C59.9,595.9,61.4,595.8,62.3,596.3z"/>
			<path class="st6" d="M42.9,607.8l7.5,4.2l8.5-5c1-0.6,2.5-0.7,3.4-0.2l359,202.4l7.3-4.3c1-0.6,1.1-1.5,0.2-1.9L62.3,596.3
				c-0.9-0.5-2.4-0.4-3.4,0.2l-15.8,9.3C42.2,606.4,42.1,607.3,42.9,607.8z"/>
		</g>
		
			<linearGradient id="SVGID_6_" gradientUnits="userSpaceOnUse" x1="3987.9595" y1="1760.4714" x2="3561.5771" y2="1004.9611" gradientTransform="matrix(-0.5088 -0.8609 0.8609 -0.5088 1249.8181 4390.8867)">
			<stop  offset="0" style="stop-color:#C1BEE0"/>
			<stop  offset="0.107" style="stop-color:#CECDE8"/>
			<stop  offset="0.2627" style="stop-color:#E9E8F6"/>
			<stop  offset="0.5143" style="stop-color:#C1BEE0"/>
			<stop  offset="0.6123" style="stop-color:#CECDE8"/>
			<stop  offset="0.755" style="stop-color:#E9E8F6"/>
			<stop  offset="1" style="stop-color:#C1BEE0"/>
		</linearGradient>
		<path class="st12" d="M979.4,228.8L674.5,56.9l0,0c0.6,54.4-36.9,120.9-83.8,148.6L174.3,451.6c-55,32.5-99.1,110.7-98.5,174.7
			l0,0l304.9,171.9l0,0c-0.7-63.9,43.4-142.1,98.5-174.7l416.5-246.2C942.5,349.7,980,283.1,979.4,228.8L979.4,228.8z"/>
		
			<radialGradient id="SVGID_7_" cx="3575.457" cy="1769.577" r="885.3057" gradientTransform="matrix(-0.5088 -0.8609 0.8609 -0.5088 1249.8181 4390.8867)" gradientUnits="userSpaceOnUse">
			<stop  offset="0" style="stop-color:#E7334E"/>
			<stop  offset="0.1349" style="stop-color:#DF3049"/>
			<stop  offset="0.3357" style="stop-color:#C92A3C"/>
			<stop  offset="0.5763" style="stop-color:#A82128"/>
			<stop  offset="0.6916" style="stop-color:#971C1F"/>
		</radialGradient>
		<path class="st13" d="M979.4,228.8L674.5,56.9l0,0c0.6,54.4-36.9,120.9-83.8,148.6L174.3,451.6c-55,32.5-99.1,110.7-98.5,174.7
			l0,0l304.9,171.9l0,0c-0.7-63.9,43.4-142.1,98.5-174.7l416.5-246.2C942.5,349.7,980,283.1,979.4,228.8L979.4,228.8z"/>
		<path class="st11" d="M75.8,626.3l304.9,171.9c0-2.8,0.1-5.6,0.2-8.5l0,0L76,617.8C75.9,620.7,75.8,623.5,75.8,626.3z"/>
	</g>
	<g class="st14">
		<polygon class="st2" points="578,445.8 638.1,479.7 632.4,483.1 572.3,449.2 		"/>
		<polygon class="st2" points="547.2,428.4 568.8,440.6 563.1,444 541.5,431.8 		"/>
		<polygon class="st2" points="523.3,415 538,423.3 532.3,426.6 517.6,418.4 		"/>
		<polygon class="st2" points="618.4,453.5 651.2,471.9 645.4,475.3 612.7,456.9 		"/>
		<polygon class="st2" points="569.2,425.7 609.3,448.3 603.5,451.7 563.4,429.1 		"/>
		<polygon class="st2" points="545.3,412.2 560,420.5 554.2,423.9 539.6,415.6 		"/>
		<polygon class="st2" points="522.6,399.4 537.3,407.7 531.5,411.1 516.8,402.8 		"/>
		<polygon class="st2" points="640.6,450.8 664.3,464.2 658.5,467.6 634.9,454.2 		"/>
		<polygon class="st2" points="623.3,441.1 631.4,445.7 625.7,449.1 617.6,444.5 		"/>
		<polygon class="st2" points="599.4,427.6 614.1,435.9 608.4,439.3 593.7,431 		"/>
		<polygon class="st2" points="589.9,407.2 677.3,456.5 671.6,459.8 584.2,410.6 		"/>
		<polygon class="st2" points="559.1,389.8 580.8,402 575,405.4 553.4,393.2 		"/>
		<polygon class="st2" points="666.8,435.4 690.4,448.7 684.7,452.1 661,438.8 		"/>
		<polygon class="st2" points="611.2,404 657.6,430.2 651.8,433.6 605.4,407.4 		"/>
		<polygon class="st2" points="587.3,390.6 602,398.9 596.3,402.3 581.6,394 		"/>
		<polygon class="st2" points="655.1,413.7 703.5,441 697.8,444.4 649.3,417.1 		"/>
		<polygon class="st2" points="610.8,388.7 645.9,408.5 640.2,411.9 605.1,392.1 		"/>
		<polygon class="st2" points="578,370.2 601.7,383.6 595.9,387 572.3,373.6 		"/>
		<polygon class="st2" points="700.2,424 716.6,433.3 710.9,436.6 694.5,427.4 		"/>
		<polygon class="st2" points="669.4,406.7 691.1,418.9 685.3,422.2 663.7,410 		"/>
		<polygon class="st2" points="625.4,381.8 660.3,401.5 654.5,404.9 619.7,385.2 		"/>
		<polygon class="st2" points="679.6,397.3 729.7,425.5 724,428.9 673.8,400.6 		"/>
		<polygon class="st2" points="623.4,365.6 670.4,392.1 664.7,395.5 617.7,369 		"/>
		<polygon class="st2" points="599.5,352.1 614.2,360.4 608.5,363.8 593.8,355.5 		"/>
		<polygon class="st2" points="576.6,339.2 591.3,347.5 585.6,350.9 570.9,342.6 		"/>
		<polygon class="st2" points="712.7,400.9 742.8,417.8 737.1,421.2 707,404.2 		"/>
		<polygon class="st2" points="456.2,377.1 414.5,353.6 408.8,357 450.4,380.5 		"/>
		<polygon class="st2" points="460.3,364.3 427.6,345.9 421.9,349.3 454.6,367.7 		"/>
		<polygon class="st2" points="464.4,351.5 440.7,338.2 435,341.5 458.6,354.9 		"/>
		<polygon class="st2" points="488.2,349.8 453.8,330.4 448,333.8 482.5,353.2 		"/>
		<polygon class="st2" points="490.5,336 466.9,322.7 461.1,326.1 484.8,339.4 		"/>
		<polygon class="st2" points="510,331.9 480,314.9 474.2,318.3 504.3,335.3 		"/>
		<polygon class="st2" points="509.4,316.4 493,307.2 487.3,310.6 503.7,319.8 		"/>
		<polygon class="st2" points="537.8,317.4 506.1,299.5 500.4,302.9 532.1,320.7 		"/>
		<polygon class="st2" points="549.2,308.7 519.2,291.7 513.5,295.1 543.5,312.1 		"/>
		<polygon class="st2" points="690.8,388.5 703.6,395.7 697.8,399.1 685.1,391.9 		"/>
		<polygon class="st2" points="652.9,367.1 681.6,383.3 675.9,386.7 647.1,370.5 		"/>
		<polygon class="st2" points="688.2,308.2 736.7,335.6 731,339 682.4,311.6 		"/>
		<polygon class="st2" points="654.9,289.5 674.1,300.3 668.3,303.7 649.2,292.9 		"/>
	</g>
	<g class="st14">
		<polygon class="st2" points="451.8,520.4 511.8,554.3 506.1,557.7 446,523.8 		"/>
		<polygon class="st2" points="421,503.1 442.6,515.3 436.9,518.6 415.2,506.4 		"/>
		<polygon class="st2" points="397.1,489.6 411.8,497.9 406.1,501.3 391.4,493 		"/>
		<polygon class="st2" points="492.2,528.1 524.9,546.6 519.2,549.9 486.5,531.5 		"/>
		<polygon class="st2" points="442.9,500.3 483,522.9 477.3,526.3 437.2,503.7 		"/>
		<polygon class="st2" points="419,486.9 433.7,495.1 428,498.5 413.3,490.2 		"/>
		<polygon class="st2" points="396.3,474 411,482.3 405.3,485.7 390.6,477.4 		"/>
		<polygon class="st2" points="514.3,525.5 538,538.8 532.3,542.2 508.6,528.9 		"/>
		<polygon class="st2" points="497.1,515.7 505.2,520.3 499.4,523.7 491.3,519.1 		"/>
		<polygon class="st2" points="473.2,502.3 487.9,510.6 482.2,513.9 467.5,505.7 		"/>
		<polygon class="st2" points="463.7,481.8 551.1,531.1 545.4,534.5 458,485.2 		"/>
		<polygon class="st2" points="432.9,464.4 454.5,476.6 448.8,480 427.2,467.8 		"/>
		<polygon class="st2" points="329.9,451.7 288.3,428.2 282.5,431.6 324.2,455.1 		"/>
		<polygon class="st2" points="334.1,439 301.4,420.5 295.6,423.9 328.4,442.4 		"/>
		<polygon class="st2" points="338.1,426.1 314.4,412.8 308.7,416.2 332.4,429.5 		"/>
		<polygon class="st2" points="362,424.5 327.5,405 321.8,408.4 356.2,427.8 		"/>
	</g>
</g>
<g>
	<path class="st1" d="M215.8,666.4c0-42.2-29.6-93.5-66.2-114.6c-18.3-10.6-34.9-11.6-46.9-4.6v0l-12.5,7.3l3.6,0.3
		c-6.6,8.1-10.4,20-10.4,35.1c0,42.2,29.6,93.5,66.2,114.6c12.6,7.3,24.3,10,34.3,8.8l-0.3,3.4l12.7-7.4c0.1,0,0.1-0.1,0.2-0.1
		l0.5-0.3l0,0C208.6,701.8,215.8,687.1,215.8,666.4z"/>
	<ellipse transform="matrix(0.866 -0.5 0.5 0.866 -299.4409 153.6349)" class="st2" cx="137" cy="635.6" rx="54" ry="93.6"/>
	<path class="st6" d="M162.6,710.5c-8,0-16.9-2.7-26.1-8c-31.9-18.4-57.8-63.3-57.8-100.1c0-18,6.1-31.5,17.3-37.9
		c11.1-6.4,25.9-5,41.5,4c31.9,18.4,57.8,63.3,57.8,100.1c0,18-6.1,31.5-17.3,37.9C173.4,709.2,168.2,710.5,162.6,710.5z
		 M111.4,562.5c-5.3,0-10.2,1.2-14.5,3.7c-10.5,6.1-16.3,19-16.3,36.3c0,36.2,25.5,80.4,56.9,98.5c15,8.7,29.1,10.1,39.6,4
		c10.5-6.1,16.3-19,16.3-36.3c0-36.2-25.5-80.4-56.9-98.5C127.6,565.1,119,562.5,111.4,562.5z"/>
</g>
<g class="st5">
	<path class="st1" d="M215.8,884.9c0-42.2-29.6-93.5-66.2-114.6c-18.3-10.6-34.9-11.6-46.9-4.6v0L90.2,773l3.6,0.3
		c-6.6,8.1-10.4,20-10.4,35.1c0,42.2,29.6,93.5,66.2,114.6c12.6,7.3,24.3,10,34.3,8.8l-0.3,3.4l12.7-7.4c0.1,0,0.1-0.1,0.2-0.1
		l0.5-0.3l0,0C208.6,920.3,215.8,905.6,215.8,884.9z"/>
	<ellipse transform="matrix(0.866 -0.5 0.5 0.866 -408.7061 182.9131)" class="st2" cx="137" cy="854.1" rx="54" ry="93.6"/>
	<path class="st6" d="M162.6,929.1c-8,0-16.9-2.7-26.1-8c-31.9-18.4-57.8-63.3-57.8-100.1c0-18,6.1-31.5,17.3-37.9
		c11.1-6.4,25.9-5,41.5,4c31.9,18.4,57.8,63.3,57.8,100.1c0,18-6.1,31.5-17.3,37.9C173.4,927.8,168.2,929.1,162.6,929.1z M111.4,781
		c-5.3,0-10.2,1.2-14.5,3.7c-10.5,6.1-16.3,19-16.3,36.3c0,36.2,25.5,80.4,56.9,98.5c15,8.7,29.1,10.1,39.6,4
		c10.5-6.1,16.3-19,16.3-36.3c0-36.2-25.5-80.4-56.9-98.5C127.6,783.6,119,781,111.4,781z"/>
</g>
</svg>
