<?xml version="1.0" encoding="utf-8"?>
<!-- Generator: Adobe Illustrator 25.3.0, SVG Export Plug-In . SVG Version: 6.00 Build 0)  -->
<svg version="1.0" id="Capa_1" xmlns="http://www.w3.org/2000/svg" xmlns:xlink="http://www.w3.org/1999/xlink" x="0px" y="0px"
	 viewBox="0 0 1000 1000" style="enable-background:new 0 0 1000 1000;" xml:space="preserve">
<style type="text/css">
	.st0{fill:none;stroke:#F1F1F1;stroke-width:3.4493;stroke-miterlimit:10;}
	.st1{fill:#7EADC4;}
	.st2{fill:#F71C50;}
</style>
<g>
	<g>
		<g>
			<g>
				<path class="st0" d="M500,500"/>
			</g>
			<g>
				<path class="st1" d="M990.4,384.1c-1.6,0-3.1-0.4-4.6-1.2L747.4,252.6L617.1,14.2c-2.5-4.7-0.8-10.5,3.8-13
					c4.6-2.5,10.5-0.8,13,3.8l127.7,233.4L995,366.1c4.7,2.5,6.4,8.4,3.8,13C997.1,382.3,993.8,384.1,990.4,384.1z"/>
			</g>
			<g>
				<path class="st1" d="M930.6,171.3H828.7V69.4c0-5.3,4.3-9.6,9.6-9.6s9.6,4.3,9.6,9.6v82.7h82.7c5.3,0,9.6,4.3,9.6,9.6
					S935.9,171.3,930.6,171.3z"/>
			</g>
		</g>
		<g>
			<g>
				<path class="st0" d="M500,500"/>
			</g>
			<g>
				<path class="st1" d="M625.5,1000c-1.6,0-3.1-0.4-4.6-1.2c-4.7-2.5-6.4-8.4-3.8-13l130.4-238.4l238.4-130.4
					c4.7-2.6,10.5-0.8,13,3.8c2.5,4.6,0.8,10.5-3.8,13L761.6,761.6L633.9,995C632.2,998.2,628.9,1000,625.5,1000z"/>
			</g>
			<g>
				<path class="st1" d="M838.3,940.2c-5.3,0-9.6-4.3-9.6-9.6V828.7h101.9c5.3,0,9.6,4.3,9.6,9.6c0,5.3-4.3,9.6-9.6,9.6h-82.7v82.7
					C847.9,935.9,843.6,940.2,838.3,940.2z"/>
			</g>
		</g>
		<g>
			<g>
				<path class="st0" d="M500,500"/>
			</g>
			<g>
				<path class="st1" d="M374.5,1000c-3.4,0-6.7-1.8-8.4-5L238.4,761.6L5,633.9c-4.7-2.5-6.4-8.4-3.8-13c2.5-4.7,8.4-6.4,13-3.8
					l238.4,130.4l130.4,238.4c2.5,4.6,0.8,10.5-3.8,13C377.7,999.6,376.1,1000,374.5,1000z"/>
			</g>
			<g>
				<path class="st1" d="M161.7,940.2c-5.3,0-9.6-4.3-9.6-9.6v-82.7H69.4c-5.3,0-9.6-4.3-9.6-9.6c0-5.3,4.3-9.6,9.6-9.6h101.9v101.9
					C171.3,935.9,167,940.2,161.7,940.2z"/>
			</g>
		</g>
		<g>
			<g>
				<path class="st0" d="M500,500"/>
			</g>
			<g>
				<path class="st1" d="M9.6,384.1c-3.4,0-6.7-1.8-8.4-5c-2.5-4.7-0.8-10.5,3.8-13l233.4-127.7L366.1,5c2.5-4.6,8.4-6.4,13-3.8
					c4.7,2.5,6.4,8.4,3.8,13L252.6,252.6L14.2,382.9C12.7,383.7,11.2,384.1,9.6,384.1z"/>
			</g>
			<g>
				<path class="st1" d="M171.3,171.3H69.4c-5.3,0-9.6-4.3-9.6-9.6s4.3-9.6,9.6-9.6h82.7V69.4c0-5.3,4.3-9.6,9.6-9.6
					s9.6,4.3,9.6,9.6V171.3z"/>
			</g>
		</g>
	</g>
	<g>
		<g>
			<g>
				<path class="st0" d="M500,500"/>
			</g>
		</g>
		<g>
			<g>
				<path class="st0" d="M500,500"/>
			</g>
		</g>
		<g>
			<g>
				<path class="st0" d="M500,500"/>
			</g>
		</g>
		<g>
			<g>
				<path class="st0" d="M500,500"/>
			</g>
		</g>
	</g>
	<g>
		<path class="st2" d="M500,562.5c-34.5,0-62.5-28-62.5-62.5s28-62.5,62.5-62.5s62.5,28,62.5,62.5S534.5,562.5,500,562.5z
			 M500,456.7c-23.9,0-43.3,19.4-43.3,43.3c0,23.9,19.4,43.3,43.3,43.3s43.3-19.4,43.3-43.3C543.3,476.1,523.9,456.7,500,456.7z"/>
	</g>
</g>
</svg>
