<?xml version="1.0" encoding="utf-8"?>
<!-- Generator: Adobe Illustrator 25.3.0, SVG Export Plug-In . SVG Version: 6.00 Build 0)  -->
<svg version="1.0" id="Capa_2" xmlns="http://www.w3.org/2000/svg" xmlns:xlink="http://www.w3.org/1999/xlink" x="0px" y="0px"
	 viewBox="0 0 1000 1000" style="enable-background:new 0 0 1000 1000;" xml:space="preserve">
<style type="text/css">
	.st0{display:none;opacity:0.7;}
	.st1{display:inline;fill:#6D8295;}
	.st2{fill:#7EADC4;}
	.st3{display:none;}
	.st4{display:inline;fill:#7EADC4;}
	.st5{display:inline;}
</style>
<g>
	<g class="st0">
		<path class="st1" d="M997.5,447.1c-156.7,71.1-324,107.2-497.5,107.2c-173.4,0-340.8-36.1-497.5-107.2l1.3-2.9
			C160.1,515.1,327,551,500,551c173,0,339.9-36,496.1-106.9L997.5,447.1z"/>
	</g>
	<g>
		<polygon class="st2" points="1000,886.7 1000,1000 0,1000 0,0 113.3,0 113.3,886.7 		"/>
	</g>
	<g class="st3">
		<polygon class="st4" points="1000,499.1 1000,555.9 943.3,555.9 943.3,549.4 993.6,549.4 993.6,499.1 		"/>
	</g>
	<g class="st3">
		<g class="st5">
			<path class="st2" d="M571.1,452.7c-23.4,2.7-47.4,4.1-71.1,4.1c-23.8,0-47.7-1.4-71.1-4.1l0.7-6.4c23.2,2.7,46.9,4.1,70.4,4.1
				c23.5,0,47.2-1.4,70.4-4.1L571.1,452.7z"/>
		</g>
		<g class="st5">
			<rect x="496.8" y="453.5" class="st2" width="6.4" height="45.6"/>
		</g>
	</g>
</g>
</svg>
