<?xml version="1.0" encoding="utf-8"?>
<!-- Generator: Adobe Illustrator 25.3.0, SVG Export Plug-In . SVG Version: 6.00 Build 0)  -->
<svg version="1.0" id="Capa_2" xmlns="http://www.w3.org/2000/svg" xmlns:xlink="http://www.w3.org/1999/xlink" x="0px" y="0px"
	 viewBox="0 0 1000 1000" style="enable-background:new 0 0 1000 1000;" xml:space="preserve">
<style type="text/css">
	.st0{display:none;opacity:0.7;}
	.st1{display:inline;fill:#6D8295;}
	.st2{fill:#7EADC4;}
	.st3{display:none;}
	.st4{display:inline;fill:#7EADC4;}
	.st5{display:inline;}
</style>
<g>
	<g class="st0">
		<path class="st1" d="M2.6,447.1c156.7,71.1,324,107.2,497.5,107.2c173.4,0,340.8-36.1,497.5-107.2l-1.3-2.9
			C839.9,515.1,673,551,500,551c-173,0-339.9-36-496.1-106.9L2.6,447.1z"/>
	</g>
	<g>
		<polygon class="st2" points="0.1,886.7 0.1,1000 1000,1000 1000,0 886.7,0 886.7,886.7 		"/>
	</g>
	<g class="st3">
		<polygon class="st4" points="0,499.1 0,555.9 56.8,555.9 56.8,549.4 6.5,549.4 6.5,499.1 		"/>
	</g>
	<g class="st3">
		<g class="st5">
			<path class="st2" d="M428.9,452.7c23.4,2.7,47.4,4.1,71.1,4.1c23.8,0,47.7-1.4,71.1-4.1l-0.7-6.4c-23.2,2.7-46.9,4.1-70.4,4.1
				c-23.5,0-47.2-1.4-70.4-4.1L428.9,452.7z"/>
		</g>
		<g class="st5">
			<rect x="496.8" y="453.5" class="st2" width="6.4" height="45.6"/>
		</g>
	</g>
</g>
</svg>
