<?xml version="1.0" encoding="utf-8"?>
<!-- Generator: Adobe Illustrator 25.3.0, SVG Export Plug-In . SVG Version: 6.00 Build 0)  -->
<svg version="1.0" xmlns="http://www.w3.org/2000/svg" xmlns:xlink="http://www.w3.org/1999/xlink" x="0px" y="0px"
	 viewBox="0 0 1000 1000" style="enable-background:new 0 0 1000 1000;" xml:space="preserve">
<style type="text/css">
	.st0{display:none;}
	.st1{display:inline;}
	.st2{fill:none;stroke:#F1F1F1;stroke-width:3.4493;stroke-miterlimit:10;}
	.st3{fill:#7EADC4;}
	.st4{fill:#F71C50;}
	.st5{opacity:0.7;}
	.st6{fill:#6D8295;}
	.st7{display:inline;fill:#7EADC4;}
</style>
<g id="Capa_1" class="st0">
	<g class="st1">
		<g>
			<g>
				<g>
					<path class="st2" d="M500,500"/>
				</g>
				<g>
					<path class="st3" d="M990.4,384.1c-1.6,0-3.1-0.4-4.6-1.2L747.4,252.6L617.1,14.2c-2.5-4.7-0.8-10.5,3.8-13
						c4.6-2.5,10.5-0.8,13,3.8l127.7,233.4L995,366.1c4.7,2.5,6.4,8.4,3.8,13C997.1,382.3,993.8,384.1,990.4,384.1z"/>
				</g>
				<g>
					<path class="st3" d="M930.6,171.3H828.7V69.4c0-5.3,4.3-9.6,9.6-9.6s9.6,4.3,9.6,9.6v82.7h82.7c5.3,0,9.6,4.3,9.6,9.6
						S935.9,171.3,930.6,171.3z"/>
				</g>
			</g>
			<g>
				<g>
					<path class="st2" d="M500,500"/>
				</g>
				<g>
					<path class="st3" d="M625.5,1000c-1.6,0-3.1-0.4-4.6-1.2c-4.7-2.5-6.4-8.4-3.8-13l130.4-238.4l238.4-130.4
						c4.7-2.6,10.5-0.8,13,3.8c2.5,4.6,0.8,10.5-3.8,13L761.6,761.6L633.9,995C632.2,998.2,628.9,1000,625.5,1000z"/>
				</g>
				<g>
					<path class="st3" d="M838.3,940.2c-5.3,0-9.6-4.3-9.6-9.6V828.7h101.9c5.3,0,9.6,4.3,9.6,9.6c0,5.3-4.3,9.6-9.6,9.6h-82.7v82.7
						C847.9,935.9,843.6,940.2,838.3,940.2z"/>
				</g>
			</g>
			<g>
				<g>
					<path class="st2" d="M500,500"/>
				</g>
				<g>
					<path class="st3" d="M374.5,1000c-3.4,0-6.7-1.8-8.4-5L238.4,761.6L5,633.9c-4.7-2.5-6.4-8.4-3.8-13c2.5-4.7,8.4-6.4,13-3.8
						l238.4,130.4l130.4,238.4c2.5,4.6,0.8,10.5-3.8,13C377.7,999.6,376.1,1000,374.5,1000z"/>
				</g>
				<g>
					<path class="st3" d="M161.7,940.2c-5.3,0-9.6-4.3-9.6-9.6v-82.7H69.4c-5.3,0-9.6-4.3-9.6-9.6c0-5.3,4.3-9.6,9.6-9.6h101.9
						v101.9C171.3,935.9,167,940.2,161.7,940.2z"/>
				</g>
			</g>
			<g>
				<g>
					<path class="st2" d="M500,500"/>
				</g>
				<g>
					<path class="st3" d="M9.6,384.1c-3.4,0-6.7-1.8-8.4-5c-2.5-4.7-0.8-10.5,3.8-13l233.4-127.7L366.1,5c2.5-4.6,8.4-6.4,13-3.8
						c4.7,2.5,6.4,8.4,3.8,13L252.6,252.6L14.2,382.9C12.7,383.7,11.2,384.1,9.6,384.1z"/>
				</g>
				<g>
					<path class="st3" d="M171.3,171.3H69.4c-5.3,0-9.6-4.3-9.6-9.6s4.3-9.6,9.6-9.6h82.7V69.4c0-5.3,4.3-9.6,9.6-9.6
						s9.6,4.3,9.6,9.6V171.3z"/>
				</g>
			</g>
		</g>
		<g>
			<g>
				<g>
					<path class="st2" d="M500,500"/>
				</g>
			</g>
			<g>
				<g>
					<path class="st2" d="M500,500"/>
				</g>
			</g>
			<g>
				<g>
					<path class="st2" d="M500,500"/>
				</g>
			</g>
			<g>
				<g>
					<path class="st2" d="M500,500"/>
				</g>
			</g>
		</g>
		<g>
			<path class="st4" d="M500,562.5c-34.5,0-62.5-28-62.5-62.5s28-62.5,62.5-62.5s62.5,28,62.5,62.5S534.5,562.5,500,562.5z
				 M500,456.7c-23.9,0-43.3,19.4-43.3,43.3c0,23.9,19.4,43.3,43.3,43.3s43.3-19.4,43.3-43.3C543.3,476.1,523.9,456.7,500,456.7z"/>
		</g>
	</g>
</g>
<g id="Capa_2">
	<g>
		<g class="st5">
			<path class="st6" d="M997.5,447.1c-156.7,71.1-324,107.2-497.5,107.2c-173.4,0-340.8-36.1-497.5-107.2l1.3-2.9
				C160.1,515.1,327,551,500,551c173,0,339.9-36,496.1-106.9L997.5,447.1z"/>
		</g>
		<g class="st0">
			<polygon class="st7" points="56.7,549.4 56.7,555.9 0,555.9 0,499.1 6.4,499.1 6.4,549.4 			"/>
		</g>
		<g class="st0">
			<polygon class="st7" points="1000,499.1 1000,555.9 943.3,555.9 943.3,549.4 993.6,549.4 993.6,499.1 			"/>
		</g>
		<g>
			<g>
				<path class="st3" d="M571.1,452.7c-23.4,2.7-47.4,4.1-71.1,4.1c-23.8,0-47.7-1.4-71.1-4.1l0.7-6.4c23.2,2.7,46.9,4.1,70.4,4.1
					c23.5,0,47.2-1.4,70.4-4.1L571.1,452.7z"/>
			</g>
			<g>
				<rect x="496.8" y="453.5" class="st3" width="6.4" height="45.6"/>
			</g>
		</g>
	</g>
</g>
</svg>
